<?xml version="1.0" encoding="UTF-8"?>
<svg version="1.1" xmlns="http://www.w3.org/2000/svg" width="1254" height="1254">
<path d="M0 0 C413.82 0 827.64 0 1254 0 C1254 413.82 1254 827.64 1254 1254 C840.18 1254 426.36 1254 0 1254 C0 840.18 0 426.36 0 0 Z " fill="#FDFCFC" transform="translate(0,0)"/>
<path d="M0 0 C11.56036662 9.82296001 22.25071092 20.72767927 31.5 32.75 C32.65822266 34.18279297 32.65822266 34.18279297 33.83984375 35.64453125 C48.18632017 53.66261775 60.30774439 74.20324551 68.5 95.75 C68.97953125 96.966875 69.4590625 98.18375 69.953125 99.4375 C75.01790967 112.43368603 79.42126771 125.51384307 81.140625 139.40625 C81.25628174 141.7035376 81.25628174 141.7035376 82.5 142.75 C82.88391262 144.48960404 83.20563766 146.24302478 83.5 148 C83.665 148.95390625 83.83 149.9078125 84 150.890625 C85.60550504 163.28311703 85.6862753 175.61911433 85.68530273 188.09716797 C85.68749533 191.24330055 85.70572804 194.38908507 85.72460938 197.53515625 C85.75542048 207.78101411 85.6603125 217.68922687 83.5 227.75 C83.36544403 228.39519592 83.23088806 229.04039185 83.09225464 229.70513916 C82.16112718 234.15683726 81.17245824 238.59339278 80.15087891 243.02514648 C79.62528072 245.31127899 79.11108471 247.59977942 78.59765625 249.88867188 C75.93010155 261.63274552 72.58880682 272.80502661 67.5 283.75 C66.91597777 285.10386971 66.33267001 286.45804779 65.75 287.8125 C56.99937389 307.33312748 46.73713348 327.49601605 32.06982422 343.29003906 C30.45747525 345.01488809 30.45747525 345.01488809 28.5 347.75 C28.86591424 353.64826201 34.87279161 358.06388309 38.6875 362.0625 C39.51958984 363.00673828 40.35167969 363.95097656 41.20898438 364.92382812 C46.16989169 370.1778224 46.16989169 370.1778224 52.91259766 371.98974609 C56.45310264 371.66995511 56.45310264 371.66995511 59.7434082 370.91870117 C67.34058843 370.5775267 73.25753373 373.30017678 78.86732769 378.38521767 C81.49488684 380.90197598 84.02728386 383.50438647 86.5546875 386.12109375 C87.6688688 387.24836689 88.7846326 388.37407785 89.90188599 389.49830627 C92.81894805 392.44189345 95.71438288 395.40586278 98.60552979 398.37487793 C101.54712635 401.38821086 104.5087144 404.38175068 107.46875 407.37695312 C112.6740297 412.6489296 117.86163938 417.93774263 123.03659058 423.23948669 C124.69800343 424.93266812 126.3719863 426.61359446 128.05744934 428.28283691 C130.34575067 430.59419637 132.50802769 432.968637 134.65551758 435.41040039 C139.56306474 440.89248348 144.75127906 446.04247566 150.01171875 451.18359375 C151.4980127 452.64775722 152.98245249 454.11378559 154.46692371 455.57979679 C158.07501418 459.14270848 161.68714978 462.70129782 165.31567383 466.2434082 C167.86589719 468.73368107 170.40324706 471.23648015 172.93299294 473.74754524 C174.34312501 475.14053011 175.76643074 476.52013976 177.19010925 477.89927673 C186.00376492 486.67646793 192.76909935 496.71127392 192.8125 509.5 C192.59030702 521.94280667 188.23484049 531.92629802 179.75 541.0625 C170.70464488 549.63999192 159.61266107 552.36542923 147.484375 552.0625 C135.90248279 551.1541163 128.07682373 544.73444173 120.57421875 536.359375 C114.36584385 529.50176863 107.82903557 522.99949628 101.25 516.5 C98.99172903 514.26868963 96.73707369 512.03380941 94.484375 509.796875 C93.98629333 509.30709167 93.48821167 508.81730835 92.97503662 508.31268311 C90.22133814 505.57775854 87.61480003 502.76445533 85.07714844 499.82714844 C81.64316092 495.8629189 78.01340819 492.15095532 74.28125 488.46875 C73.61967896 487.81096558 72.95810791 487.15318115 72.27648926 486.47546387 C70.18677265 484.39782726 68.09382685 482.32349373 66 480.25 C63.236583 477.5134185 60.47666278 474.77337737 57.71875 472.03125 C57.09875122 471.41954956 56.47875244 470.80784912 55.83996582 470.1776123 C52.10985462 466.46812195 48.61627433 462.621934 45.177948 458.6416626 C42.7468533 455.90092753 40.14034285 453.37594406 37.48828125 450.8515625 C36.3892299 449.78462008 35.29094505 448.71688763 34.19335938 447.6484375 C32.50214852 446.00654238 30.80705669 444.36982727 29.09838867 442.74609375 C21.47938244 435.48885643 15.43759154 429.21632531 14.07421875 418.359375 C14.11160156 417.41578125 14.14898438 416.4721875 14.1875 415.5 C14.21199219 414.54609375 14.23648437 413.5921875 14.26171875 412.609375 C14.5 409.75 14.5 409.75 15.5 406.9296875 C15.5 402.3240587 13.21060688 400.58928537 10.09570312 397.375 C9.34224609 396.6325 8.58878906 395.89 7.8125 395.125 C7.07837891 394.37476563 6.34425781 393.62453125 5.58789062 392.8515625 C3.57494422 390.80043012 1.54223115 388.77191428 -0.5 386.75 C-1.15846924 385.98896973 -1.81693848 385.22793945 -2.49536133 384.44384766 C-4.31489513 382.52062082 -4.31489513 382.52062082 -6.47802734 382.82446289 C-8.78758162 383.88163752 -10.76470463 385.10719065 -12.8515625 386.55859375 C-13.69364258 387.13593262 -14.53572266 387.71327148 -15.40332031 388.30810547 C-16.30147461 388.92830566 -17.19962891 389.54850586 -18.125 390.1875 C-27.63566162 396.63237574 -37.28526962 402.49385403 -47.5 407.75 C-48.19512695 408.10787598 -48.89025391 408.46575195 -49.60644531 408.83447266 C-71.71276368 420.05299 -96.39961074 428.03903281 -120.97143555 431.40161133 C-122.93349895 431.6719468 -124.89282341 431.96219627 -126.85083008 432.26049805 C-135.7549471 433.56030575 -144.4428927 434.10276749 -153.4375 434.0625 C-154.10430786 434.06034485 -154.77111572 434.0581897 -155.45812988 434.05596924 C-168.3017281 433.99008706 -180.84477407 432.99339848 -193.5 430.75 C-194.56105957 430.56195801 -195.62211914 430.37391602 -196.71533203 430.18017578 C-232.39972382 423.58284081 -270.08351661 408.80517013 -297.90625 384.859375 C-299.58673018 383.46434989 -299.58673018 383.46434989 -302.5 383.75 C-304.56742558 385.82637399 -304.56742558 385.82637399 -306.625 388.5625 C-307.42679688 389.57570313 -308.22859375 390.58890625 -309.0546875 391.6328125 C-309.86164063 392.66148437 -310.66859375 393.69015625 -311.5 394.75 C-312.91214959 396.48285756 -314.32876349 398.21208741 -315.75 399.9375 C-321.10116505 406.47781284 -326.42686741 413.0387628 -331.75341797 419.59912109 C-334.77226567 423.31676832 -337.79246246 427.03331934 -340.8125 430.75 C-341.91276628 432.10416191 -343.01302725 433.45832812 -344.11328125 434.8125 C-345.29470703 436.2665625 -345.29470703 436.2665625 -346.5 437.75 C-345.5111199 440.34154785 -344.67105844 442.52192208 -343 444.75 C-339.84095791 448.96205612 -339.25795963 452.546132 -339.5 457.75 C-338.84 457.75 -338.18 457.75 -337.5 457.75 C-337.07609007 467.24087222 -336.86398523 475.16301732 -341.5 483.75 C-341.82355469 484.39324219 -342.14710938 485.03648437 -342.48046875 485.69921875 C-346.69243379 493.62458971 -351.82332146 498.34210071 -359.5 502.75 C-360.21671875 503.16765625 -360.9334375 503.5853125 -361.671875 504.015625 C-370.37345801 508.27640013 -381.13912759 508.00227084 -390.49609375 506.16015625 C-400.0926155 502.8282439 -408.5142399 495.38016303 -413.28515625 486.48828125 C-418.82664362 473.9976618 -420.31306259 463.63952747 -415.5 450.75 C-410.46126222 439.97808302 -402.97632495 432.19470647 -391.98046875 427.625 C-382.2869654 424.20555945 -371.28609416 425.0030262 -361.5 427.75 C-355.94419753 421.24981157 -350.42299981 414.75246202 -345.21875 407.96484375 C-342.5789139 404.56305496 -339.83574227 401.2479906 -337.1015625 397.921875 C-333.41462518 393.43469478 -329.76186442 388.91963549 -326.10498047 384.40795898 C-325.58049316 383.76157471 -325.05600586 383.11519043 -324.515625 382.44921875 C-324.01224609 381.82321777 -323.50886719 381.1972168 -322.99023438 380.55224609 C-322.01117938 379.36820547 -321.0022492 378.20813469 -319.96289062 377.07666016 C-318.36920404 375.37698573 -318.36920404 375.37698573 -316.5 372.75 C-316.98299254 368.11735321 -320.28370182 365.72181986 -323.5 362.6875 C-329.313979 357.03603336 -334.49652032 351.13798019 -339.5 344.75 C-340.35610993 343.70541935 -341.21427179 342.66251786 -342.07421875 341.62109375 C-355.30234753 325.44887792 -365.21942972 307.40201963 -374.5 288.75 C-374.83789551 288.07146973 -375.17579102 287.39293945 -375.52392578 286.69384766 C-381.63817877 274.28006129 -385.86961575 261.34976055 -389.18530273 247.95581055 C-389.68550019 245.94553715 -390.2044043 243.94072323 -390.72460938 241.93554688 C-395.16893403 224.44723855 -395.91129608 207.24479096 -395.875 189.25 C-395.87412384 188.18763123 -395.87324768 187.12526245 -395.87234497 186.03070068 C-395.82939507 170.24207881 -395.26960509 155.15168202 -391.5 139.75 C-391.25330566 138.70376465 -391.00661133 137.6575293 -390.75244141 136.57958984 C-380.47580074 93.71293953 -361.52798659 55.88164541 -332.5 22.75 C-331.71625 21.85410156 -330.9325 20.95820313 -330.125 20.03515625 C-321.88268528 10.74824262 -313.25496643 2.43966728 -303.5 -5.25 C-302.50097656 -6.054375 -301.50195312 -6.85875 -300.47265625 -7.6875 C-292.23360754 -14.24939194 -283.54258386 -19.86367053 -274.5 -25.25 C-273.54335449 -25.82814453 -273.54335449 -25.82814453 -272.56738281 -26.41796875 C-255.97545976 -36.3952565 -238.04769774 -43.76843884 -219.5 -49.25 C-218.76088379 -49.47139648 -218.02176758 -49.69279297 -217.26025391 -49.92089844 C-140.86754148 -72.28214373 -60.14662325 -50.03944267 0 0 Z " fill="#FCFCFB" transform="translate(871.5,453.25)"/>
<path d="M0 0 C1.95918397 0.85209883 3.91933469 1.70197778 5.88037109 2.54980469 C10.10094171 4.37769541 14.3162148 6.21714281 18.52832031 8.06445312 C25.47904184 11.10757793 32.45190725 14.09766015 39.4296875 17.078125 C40.61923035 17.58631775 41.80877319 18.0945105 43.03436279 18.61810303 C45.44304336 19.64704565 47.85175513 20.67591525 50.26049805 21.70471191 C56.22589583 24.25506553 62.18719433 26.81495373 68.1484375 29.375 C70.41372926 30.34767423 72.67902853 31.32033098 74.94433594 32.29296875 C76.01276733 32.75171387 77.08119873 33.21045898 78.18200684 33.68310547 C84.90874679 36.57046753 91.63752223 39.45307994 98.36627197 42.33575439 C100.47590651 43.23967658 102.58539273 44.14394393 104.69482422 45.04833984 C110.86786186 47.69485363 117.04184073 50.33909243 123.21875 52.9765625 C138.76319768 59.6182608 154.2668539 66.34992079 169.75292969 73.12646484 C177.33717498 76.44250999 184.93118783 79.71864253 192.58154297 82.88012695 C196.94619217 84.71184204 201.25421648 86.66515338 205.5625 88.625 C213.12181979 92.05420867 220.64506141 95.43848273 228.4375 98.3125 C233.94828363 100.40823902 239.1166686 102.89777003 244.3515625 105.59765625 C247.1163033 106.93531386 249.84907396 107.99839087 252.75 109 C257.91898402 110.78524159 262.67547698 113.12558277 267.53515625 115.62109375 C270.72609299 117.24181414 273.94495154 118.62809309 277.25 120 C282.14547652 122.14235825 287.01329208 124.344762 291.875 126.5625 C295.97754957 128.4325261 300.10156596 130.23470892 304.25 132 C304.91 132.33 305.57 132.66 306.25 133 C306.02915955 135.35528564 306.02915955 135.35528564 305.25 138 C303.33106995 139.32293701 303.33106995 139.32293701 300.78344727 140.31542969 C299.8330809 140.69765686 298.88271454 141.07988403 297.90354919 141.47369385 C296.86416702 141.86909363 295.82478485 142.26449341 294.75390625 142.671875 C293.14063194 143.31355621 293.14063194 143.31355621 291.49476624 143.96820068 C289.22315252 144.8716428 286.94853786 145.76757051 284.67120361 146.65649414 C280.36632948 148.34701721 276.0900005 150.10257917 271.81381226 151.86413574 C268.69696816 153.1479881 265.57666074 154.42302857 262.45507812 155.6953125 C257.19407688 157.83964189 251.93384841 159.98585078 246.67446899 162.13415527 C244.64232554 162.96191441 242.60880443 163.78630064 240.57382202 164.60705566 C236.26326383 166.34678938 231.9727743 168.10296091 227.73486328 170.01367188 C216.5640764 174.9788968 216.5640764 174.9788968 210.24511719 172.80371094 C209.58672852 172.53848633 208.92833984 172.27326172 208.25 172 C206.87085223 171.60418785 205.48790584 171.22138405 204.1015625 170.8515625 C203.41698975 170.65288574 202.73241699 170.45420898 202.02709961 170.24951172 C134.8739671 150.7625335 63.77520012 159.01932676 2.37890625 192.609375 C-1.74582099 194.9473668 -5.76850359 197.42663051 -9.75 200 C-10.41112793 200.42603516 -11.07225586 200.85207031 -11.75341797 201.29101562 C-36.62929326 217.49484272 -58.56852073 237.57431288 -76.44726562 261.2734375 C-77.28942632 262.38958451 -78.13675068 263.5018623 -78.99023438 264.609375 C-86.90685598 274.90990681 -93.10448831 286.13075826 -99.36230469 297.49169922 C-101.12622501 300.68003796 -102.93182401 303.84234653 -104.75 307 C-112.2584216 304.76064619 -119.1738042 301.54776023 -126.23095703 298.18945312 C-131.51267405 295.69550805 -136.82112792 293.25886681 -142.125 290.8125 C-143.23029053 290.30146729 -144.33558105 289.79043457 -145.47436523 289.26391602 C-146.54243408 288.77076904 -147.61050293 288.27762207 -148.7109375 287.76953125 C-149.65759277 287.33229736 -150.60424805 286.89506348 -151.57958984 286.44458008 C-154.08483806 285.30307741 -156.59638685 284.1813727 -159.11450195 283.06884766 C-163.42818305 281.15544048 -167.69769574 279.15992505 -171.95703125 277.12890625 C-173.51431171 276.38897381 -175.07160384 275.64906593 -176.62890625 274.90917969 C-177.83571045 274.33508362 -177.83571045 274.33508362 -179.06689453 273.74938965 C-194.7836288 266.27463875 -210.53904851 258.89104373 -226.33398438 251.58300781 C-232.39440176 248.77456396 -238.44735797 245.9501491 -244.5 243.125 C-245.11780334 242.83672333 -245.73560669 242.54844666 -246.37213135 242.25143433 C-253.55673252 238.89869063 -260.73773163 235.53837963 -267.9140625 232.16796875 C-270.65100074 230.88272531 -273.387975 229.59755866 -276.125 228.3125 C-276.80240234 227.99442383 -277.47980469 227.67634766 -278.17773438 227.34863281 C-286.59851891 223.39610189 -295.03455416 219.48121942 -303.5 215.625 C-313.58563675 211.02950023 -323.60785729 206.30479255 -333.625 201.5625 C-344.13017968 196.59094036 -354.63729914 191.62553402 -365.1875 186.75 C-366.19603027 186.28352051 -367.20456055 185.81704102 -368.24365234 185.33642578 C-374.04747535 182.6652063 -379.87504436 180.05389955 -385.72265625 177.48046875 C-387.07304121 176.88388676 -388.42338331 176.28720772 -389.77368164 175.69042969 C-392.37397564 174.54143952 -394.97912324 173.40457632 -397.58764648 172.27441406 C-398.75497314 171.75975586 -399.9222998 171.24509766 -401.125 170.71484375 C-402.16398438 170.26230225 -403.20296875 169.80976074 -404.2734375 169.34350586 C-406.75 168 -406.75 168 -408.75 165 C-408.57666016 162.95874023 -408.57666016 162.95874023 -407.75 161 C-401.15894754 156.22029005 -393.70427408 152.92892669 -386.375 149.4375 C-385.08561605 148.8194158 -383.79631072 148.20116758 -382.50708008 147.58276367 C-371.01633818 142.08286886 -359.45951597 136.72740544 -347.87451172 131.42919922 C-344.77036387 130.00931474 -341.66813063 128.58532604 -338.56640625 127.16015625 C-328.61465449 122.5895157 -318.65426394 118.03780899 -308.6875 113.5 C-307.7893457 113.09056152 -306.89119141 112.68112305 -305.96582031 112.25927734 C-301.24996942 110.11513714 -296.51790634 108.02561984 -291.75 106 C-285.95671446 103.46294047 -280.20085636 100.84391369 -274.4453125 98.22265625 C-269.8667691 96.14572279 -265.26804958 94.11470831 -260.67082214 92.07957458 C-255.34672077 89.71847921 -250.03907482 87.32305588 -244.73828125 84.91015625 C-225.79974294 76.30454529 -206.83229849 67.79986475 -187.7223053 59.58137512 C-179.77251044 56.15653981 -171.85246338 52.66367708 -163.92904663 49.17837524 C-147.02717665 41.74410929 -130.10724237 34.35428339 -113.15405273 27.03765869 C-110.42091731 25.85795839 -107.68799234 24.67777126 -104.95507812 23.49755859 C-103.91525284 23.04856201 -102.87542755 22.59956543 -101.80409241 22.13696289 C-99.61853123 21.19321901 -97.43301545 20.24937003 -95.24754333 19.30541992 C-89.63789769 16.88314562 -84.02673364 14.46450492 -78.41235352 12.05322266 C-69.13671373 8.06732773 -59.86622556 4.07984696 -50.66796875 -0.08203125 C-49.37933171 -0.65870913 -48.09044494 -1.2348294 -46.80126953 -1.81030273 C-44.58168093 -2.80577813 -42.36940591 -3.81784864 -40.16748047 -4.85180664 C-25.06209451 -11.57417172 -14.15140334 -6.29530806 0 0 Z " fill="#092041" transform="translate(586.75,216)"/>
<path d="M0 0 C11.56036662 9.82296001 22.25071092 20.72767927 31.5 32.75 C32.65822266 34.18279297 32.65822266 34.18279297 33.83984375 35.64453125 C48.18632017 53.66261775 60.30774439 74.20324551 68.5 95.75 C68.97953125 96.966875 69.4590625 98.18375 69.953125 99.4375 C75.01790967 112.43368603 79.42126771 125.51384307 81.140625 139.40625 C81.25628174 141.7035376 81.25628174 141.7035376 82.5 142.75 C82.88391262 144.48960404 83.20563766 146.24302478 83.5 148 C83.665 148.95390625 83.83 149.9078125 84 150.890625 C85.60550504 163.28311703 85.6862753 175.61911433 85.68530273 188.09716797 C85.68749533 191.24330055 85.70572804 194.38908507 85.72460938 197.53515625 C85.75542048 207.78101411 85.6603125 217.68922687 83.5 227.75 C83.36544403 228.39519592 83.23088806 229.04039185 83.09225464 229.70513916 C82.16112718 234.15683726 81.17245824 238.59339278 80.15087891 243.02514648 C79.62528072 245.31127899 79.11108471 247.59977942 78.59765625 249.88867188 C75.93010155 261.63274552 72.58880682 272.80502661 67.5 283.75 C66.91597777 285.10386971 66.33267001 286.45804779 65.75 287.8125 C56.99937389 307.33312748 46.73713348 327.49601605 32.06982422 343.29003906 C30.45747525 345.01488809 30.45747525 345.01488809 28.5 347.75 C28.86591424 353.64826201 34.87279161 358.06388309 38.6875 362.0625 C39.51958984 363.00673828 40.35167969 363.95097656 41.20898438 364.92382812 C46.16989169 370.1778224 46.16989169 370.1778224 52.91259766 371.98974609 C56.45310264 371.66995511 56.45310264 371.66995511 59.7434082 370.91870117 C67.34058843 370.5775267 73.25753373 373.30017678 78.86732769 378.38521767 C81.49488684 380.90197598 84.02728386 383.50438647 86.5546875 386.12109375 C87.6688688 387.24836689 88.7846326 388.37407785 89.90188599 389.49830627 C92.81894805 392.44189345 95.71438288 395.40586278 98.60552979 398.37487793 C101.54712635 401.38821086 104.5087144 404.38175068 107.46875 407.37695312 C112.6740297 412.6489296 117.86163938 417.93774263 123.03659058 423.23948669 C124.69800343 424.93266812 126.3719863 426.61359446 128.05744934 428.28283691 C130.34575067 430.59419637 132.50802769 432.968637 134.65551758 435.41040039 C139.56306474 440.89248348 144.75127906 446.04247566 150.01171875 451.18359375 C151.4980127 452.64775722 152.98245249 454.11378559 154.46692371 455.57979679 C158.07501418 459.14270848 161.68714978 462.70129782 165.31567383 466.2434082 C167.86589719 468.73368107 170.40324706 471.23648015 172.93299294 473.74754524 C174.34312501 475.14053011 175.76643074 476.52013976 177.19010925 477.89927673 C186.00376492 486.67646793 192.76909935 496.71127392 192.8125 509.5 C192.59030702 521.94280667 188.23484049 531.92629802 179.75 541.0625 C170.70464488 549.63999192 159.61266107 552.36542923 147.484375 552.0625 C135.90248279 551.1541163 128.07682373 544.73444173 120.57421875 536.359375 C114.36584385 529.50176863 107.82903557 522.99949628 101.25 516.5 C98.99172903 514.26868963 96.73707369 512.03380941 94.484375 509.796875 C93.98629333 509.30709167 93.48821167 508.81730835 92.97503662 508.31268311 C90.22133814 505.57775854 87.61480003 502.76445533 85.07714844 499.82714844 C81.64316092 495.8629189 78.01340819 492.15095532 74.28125 488.46875 C73.61967896 487.81096558 72.95810791 487.15318115 72.27648926 486.47546387 C70.18677265 484.39782726 68.09382685 482.32349373 66 480.25 C63.236583 477.5134185 60.47666278 474.77337737 57.71875 472.03125 C57.09875122 471.41954956 56.47875244 470.80784912 55.83996582 470.1776123 C52.10985462 466.46812195 48.61627433 462.621934 45.177948 458.6416626 C42.7468533 455.90092753 40.14034285 453.37594406 37.48828125 450.8515625 C36.3892299 449.78462008 35.29094505 448.71688763 34.19335938 447.6484375 C32.50214852 446.00654238 30.80705669 444.36982727 29.09838867 442.74609375 C21.47938244 435.48885643 15.43759154 429.21632531 14.07421875 418.359375 C14.11160156 417.41578125 14.14898438 416.4721875 14.1875 415.5 C14.21199219 414.54609375 14.23648437 413.5921875 14.26171875 412.609375 C14.5 409.75 14.5 409.75 15.5 406.9296875 C15.5 402.3240587 13.21060688 400.58928537 10.09570312 397.375 C9.34224609 396.6325 8.58878906 395.89 7.8125 395.125 C7.07837891 394.37476563 6.34425781 393.62453125 5.58789062 392.8515625 C3.57494422 390.80043012 1.54223115 388.77191428 -0.5 386.75 C-1.15846924 385.98896973 -1.81693848 385.22793945 -2.49536133 384.44384766 C-4.31489513 382.52062082 -4.31489513 382.52062082 -6.47802734 382.82446289 C-8.78758162 383.88163752 -10.76470463 385.10719065 -12.8515625 386.55859375 C-13.69364258 387.13593262 -14.53572266 387.71327148 -15.40332031 388.30810547 C-16.30147461 388.92830566 -17.19962891 389.54850586 -18.125 390.1875 C-27.63566162 396.63237574 -37.28526962 402.49385403 -47.5 407.75 C-48.19512695 408.10787598 -48.89025391 408.46575195 -49.60644531 408.83447266 C-71.71276368 420.05299 -96.39961074 428.03903281 -120.97143555 431.40161133 C-122.93349895 431.6719468 -124.89282341 431.96219627 -126.85083008 432.26049805 C-135.7549471 433.56030575 -144.4428927 434.10276749 -153.4375 434.0625 C-154.10430786 434.06034485 -154.77111572 434.0581897 -155.45812988 434.05596924 C-168.3017281 433.99008706 -180.84477407 432.99339848 -193.5 430.75 C-194.56105957 430.56195801 -195.62211914 430.37391602 -196.71533203 430.18017578 C-232.39972382 423.58284081 -270.08351661 408.80517013 -297.90625 384.859375 C-299.58673018 383.46434989 -299.58673018 383.46434989 -302.5 383.75 C-304.56742558 385.82637399 -304.56742558 385.82637399 -306.625 388.5625 C-307.42679688 389.57570313 -308.22859375 390.58890625 -309.0546875 391.6328125 C-309.86164063 392.66148437 -310.66859375 393.69015625 -311.5 394.75 C-312.91214959 396.48285756 -314.32876349 398.21208741 -315.75 399.9375 C-321.10116505 406.47781284 -326.42686741 413.0387628 -331.75341797 419.59912109 C-334.77226567 423.31676832 -337.79246246 427.03331934 -340.8125 430.75 C-341.91276628 432.10416191 -343.01302725 433.45832812 -344.11328125 434.8125 C-345.29470703 436.2665625 -345.29470703 436.2665625 -346.5 437.75 C-345.5111199 440.34154785 -344.67105844 442.52192208 -343 444.75 C-339.84095791 448.96205612 -339.25795963 452.546132 -339.5 457.75 C-338.84 457.75 -338.18 457.75 -337.5 457.75 C-337.07609007 467.24087222 -336.86398523 475.16301732 -341.5 483.75 C-341.82355469 484.39324219 -342.14710938 485.03648437 -342.48046875 485.69921875 C-346.69243379 493.62458971 -351.82332146 498.34210071 -359.5 502.75 C-360.21671875 503.16765625 -360.9334375 503.5853125 -361.671875 504.015625 C-370.37345801 508.27640013 -381.13912759 508.00227084 -390.49609375 506.16015625 C-400.0926155 502.8282439 -408.5142399 495.38016303 -413.28515625 486.48828125 C-418.82664362 473.9976618 -420.31306259 463.63952747 -415.5 450.75 C-410.46126222 439.97808302 -402.97632495 432.19470647 -391.98046875 427.625 C-382.2869654 424.20555945 -371.28609416 425.0030262 -361.5 427.75 C-355.94419753 421.24981157 -350.42299981 414.75246202 -345.21875 407.96484375 C-342.5789139 404.56305496 -339.83574227 401.2479906 -337.1015625 397.921875 C-333.41462518 393.43469478 -329.76186442 388.91963549 -326.10498047 384.40795898 C-325.58049316 383.76157471 -325.05600586 383.11519043 -324.515625 382.44921875 C-324.01224609 381.82321777 -323.50886719 381.1972168 -322.99023438 380.55224609 C-322.01117938 379.36820547 -321.0022492 378.20813469 -319.96289062 377.07666016 C-318.36920404 375.37698573 -318.36920404 375.37698573 -316.5 372.75 C-316.98299254 368.11735321 -320.28370182 365.72181986 -323.5 362.6875 C-329.313979 357.03603336 -334.49652032 351.13798019 -339.5 344.75 C-340.35610993 343.70541935 -341.21427179 342.66251786 -342.07421875 341.62109375 C-355.30234753 325.44887792 -365.21942972 307.40201963 -374.5 288.75 C-374.83789551 288.07146973 -375.17579102 287.39293945 -375.52392578 286.69384766 C-381.63817877 274.28006129 -385.86961575 261.34976055 -389.18530273 247.95581055 C-389.68550019 245.94553715 -390.2044043 243.94072323 -390.72460938 241.93554688 C-395.16893403 224.44723855 -395.91129608 207.24479096 -395.875 189.25 C-395.87412384 188.18763123 -395.87324768 187.12526245 -395.87234497 186.03070068 C-395.82939507 170.24207881 -395.26960509 155.15168202 -391.5 139.75 C-391.25330566 138.70376465 -391.00661133 137.6575293 -390.75244141 136.57958984 C-380.47580074 93.71293953 -361.52798659 55.88164541 -332.5 22.75 C-331.71625 21.85410156 -330.9325 20.95820313 -330.125 20.03515625 C-321.88268528 10.74824262 -313.25496643 2.43966728 -303.5 -5.25 C-302.50097656 -6.054375 -301.50195312 -6.85875 -300.47265625 -7.6875 C-292.23360754 -14.24939194 -283.54258386 -19.86367053 -274.5 -25.25 C-273.54335449 -25.82814453 -273.54335449 -25.82814453 -272.56738281 -26.41796875 C-255.97545976 -36.3952565 -238.04769774 -43.76843884 -219.5 -49.25 C-218.76088379 -49.47139648 -218.02176758 -49.69279297 -217.26025391 -49.92089844 C-140.86754148 -72.28214373 -60.14662325 -50.03944267 0 0 Z M-193.5 -12.25 C-194.53600342 -12.03102051 -195.57200684 -11.81204102 -196.6394043 -11.58642578 C-233.41682311 -3.41082951 -266.39205611 15.87423538 -293.5 41.75 C-294.35335937 42.55050781 -295.20671875 43.35101563 -296.0859375 44.17578125 C-319.44667495 66.68904715 -336.80225447 97.34262944 -345.73828125 128.3359375 C-346.5 130.75 -346.5 130.75 -347.5 131.75 C-347.80639234 133.28499529 -348.06849274 134.82886053 -348.3125 136.375 C-349.30954288 142.17733979 -350.83552691 147.74702092 -352.5 153.390625 C-355.42390197 164.98056711 -355.84594456 176.7981778 -355.75 188.6875 C-355.74656586 189.38987793 -355.74313171 190.09225586 -355.73959351 190.81591797 C-355.68177889 200.91783891 -355.42567034 210.79806329 -353.5 220.75 C-353.32807129 221.67780273 -353.15614258 222.60560547 -352.97900391 223.56152344 C-352.38069129 226.75352372 -351.75851786 229.93980629 -351.125 233.125 C-350.8297644 234.62450195 -350.8297644 234.62450195 -350.52856445 236.15429688 C-349.32695266 241.88689697 -347.7013615 247.1231463 -345.41943359 252.51611328 C-344.21243803 255.44867021 -343.3745243 258.45374035 -342.5 261.5 C-339.10288529 272.30642455 -333.1658205 282.00653318 -327.5 291.75 C-326.83145996 292.90677246 -326.83145996 292.90677246 -326.14941406 294.08691406 C-320.4693102 303.82235808 -314.00931426 312.3599637 -306.5 320.75 C-305.26976876 322.16574229 -304.04044866 323.58227745 -302.8125 325 C-302.27109375 325.61230469 -301.7296875 326.22460938 -301.171875 326.85546875 C-299.96392842 328.22428672 -298.76740052 329.60321038 -297.578125 330.98828125 C-293.20261879 336.03368086 -288.68588771 340.54308089 -283.5 344.75 C-282.57703125 345.49894531 -281.6540625 346.24789063 -280.703125 347.01953125 C-248.0891619 372.98923639 -206.35747684 391.69837669 -164.07421875 391.953125 C-163.29322311 391.96013931 -162.51222748 391.96715363 -161.70756531 391.97438049 C-159.20081759 391.99179333 -156.69430597 391.99823283 -154.1875 392 C-152.90386566 392.00101212 -152.90386566 392.00101212 -151.59429932 392.00204468 C-139.29510692 391.98660757 -127.51419112 391.58408827 -115.5 388.75 C-113.9023652 388.40615034 -112.30470798 388.06240482 -110.70703125 387.71875 C-74.34968452 379.55239625 -42.65168315 362.11706548 -15.5 336.75 C-14.68660156 335.99074219 -13.87320312 335.23148438 -13.03515625 334.44921875 C18.57891592 303.93389791 36.49212186 262.53927945 43.5 219.75 C43.63132324 218.97060059 43.76264648 218.19120117 43.89794922 217.38818359 C45.55237979 207.13442668 45.69102262 196.87177489 45.75 186.5 C45.75942627 185.25645752 45.76885254 184.01291504 45.77856445 182.73168945 C45.74876277 174.24495793 44.9217243 166.11213126 43.5 157.75 C43.33806152 156.78594238 43.17612305 155.82188477 43.00927734 154.82861328 C42.55044386 152.19327409 42.0623705 149.56533325 41.5625 146.9375 C41.40587891 146.07447266 41.24925781 145.21144531 41.08789062 144.32226562 C40.00582917 138.60156621 38.46490117 133.22578438 36.5 127.75 C36.2522583 127.03126709 36.0045166 126.31253418 35.74926758 125.57202148 C27.33989312 101.25507186 15.98225439 78.62707098 -0.5 58.75 C-0.99177734 58.15670898 -1.48355469 57.56341797 -1.99023438 56.95214844 C-9.94892365 47.41070854 -17.98643053 38.78440994 -27.70703125 30.9921875 C-29.41063218 29.62454144 -31.09976846 28.23828045 -32.76171875 26.8203125 C-47.61479713 14.32609997 -64.85542344 5.57314592 -82.5 -2.25 C-83.15194336 -2.53987793 -83.80388672 -2.82975586 -84.47558594 -3.12841797 C-90.98871855 -5.9669494 -97.72481235 -7.99091824 -104.5625 -9.875 C-105.25118164 -10.0694873 -105.93986328 -10.26397461 -106.64941406 -10.46435547 C-121.87348099 -14.44452579 -137.33500987 -15.75331851 -153.01928711 -15.64111328 C-155.69761527 -15.62493891 -158.37444937 -15.64113191 -161.05273438 -15.66015625 C-172.18812445 -15.67431806 -182.62365531 -14.61353104 -193.5 -12.25 Z " fill="#FBBC0A" transform="translate(871.5,453.25)"/>
<path d="M0 0 C3.88233319 3.17098956 7.39569502 6.34069337 10.69140625 10.12109375 C17.47317258 18.3819299 17.47317258 18.3819299 26.765625 22.67578125 C30.27302234 22.34426641 30.27302234 22.34426641 33.42578125 21.390625 C40.10071853 20.66112366 45.70335584 23.18417743 50.91468811 27.30447388 C54.09175449 30.19766489 57.07059181 33.2815576 60.0546875 36.37109375 C61.1688688 37.49836689 62.2846326 38.62407785 63.40188599 39.74830627 C66.31894805 42.69189345 69.21438288 45.65586278 72.10552979 48.62487793 C75.04712635 51.63821086 78.0087144 54.63175068 80.96875 57.62695312 C86.1740297 62.8989296 91.36163938 68.18774263 96.53659058 73.48948669 C98.19800343 75.18266812 99.8719863 76.86359446 101.55744934 78.53283691 C103.84575067 80.84419637 106.00802769 83.218637 108.15551758 85.66040039 C113.06306474 91.14248348 118.25127906 96.29247566 123.51171875 101.43359375 C124.9980127 102.89775722 126.48245249 104.36378559 127.96692371 105.82979679 C131.57501418 109.39270848 135.18714978 112.95129782 138.81567383 116.4934082 C141.36589719 118.98368107 143.90324706 121.48648015 146.43299294 123.99754524 C147.84312501 125.39053011 149.26643074 126.77013976 150.69010925 128.14927673 C159.50376492 136.92646793 166.26909935 146.96127392 166.3125 159.75 C166.09030702 172.19280667 161.73484049 182.17629802 153.25 191.3125 C144.20464488 199.88999192 133.11266107 202.61542923 120.984375 202.3125 C109.40248279 201.4041163 101.57682373 194.98444173 94.07421875 186.609375 C87.86584385 179.75176863 81.32903557 173.24949628 74.75 166.75 C72.49172903 164.51868963 70.23707369 162.28380941 67.984375 160.046875 C67.48629333 159.55709167 66.98821167 159.06730835 66.47503662 158.56268311 C63.72133814 155.82775854 61.11480003 153.01445533 58.57714844 150.07714844 C55.14316092 146.1129189 51.51340819 142.40095532 47.78125 138.71875 C47.11967896 138.06096558 46.45810791 137.40318115 45.77648926 136.72546387 C43.68677265 134.64782726 41.59382685 132.57349373 39.5 130.5 C36.736583 127.7634185 33.97666278 125.02337737 31.21875 122.28125 C30.59875122 121.66954956 29.97875244 121.05784912 29.33996582 120.4276123 C25.60985462 116.71812195 22.11627433 112.871934 18.677948 108.8916626 C16.2468533 106.15092753 13.64034285 103.62594406 10.98828125 101.1015625 C9.8892299 100.03462008 8.79094505 98.96688763 7.69335938 97.8984375 C6.00214852 96.25654238 4.30705669 94.61982727 2.59838867 92.99609375 C-5.02061756 85.73885643 -11.06240846 79.46632531 -12.42578125 68.609375 C-12.38839844 67.66578125 -12.35101562 66.7221875 -12.3125 65.75 C-12.28800781 64.79609375 -12.26351562 63.8421875 -12.23828125 62.859375 C-12 60 -12 60 -11.00390625 57.171875 C-10.99826535 52.59146526 -13.2488161 50.90911282 -16.35546875 47.72265625 C-17.47888672 46.62244141 -17.47888672 46.62244141 -18.625 45.5 C-20.07690675 44.03262 -21.52745636 42.56389579 -22.9765625 41.09375 C-23.66782227 40.40023437 -24.35908203 39.70671875 -25.07128906 38.9921875 C-27.541462 36.44071774 -29.78126706 33.77122375 -32 31 C-29.83472491 28.9776574 -27.66807972 26.95683299 -25.5 24.9375 C-24.85579102 24.33695801 -24.21158203 23.73641602 -23.54785156 23.11767578 C-20.33588053 20.13305081 -17.10655121 17.19755443 -13.75 14.375 C-8.70655225 10.04421335 -4.39039873 4.97518545 0 0 Z " fill="#0A2040" transform="translate(898,803)"/>
<path d="M0 0 C1.44709099 -0.01441132 1.44709099 -0.01441132 2.92341614 -0.02911377 C3.96922348 -0.03336365 5.01503082 -0.03761353 6.0925293 -0.04199219 C7.7019062 -0.0505423 7.7019062 -0.0505423 9.34379578 -0.05926514 C11.61769624 -0.06872402 13.89161047 -0.07525263 16.16552734 -0.07910156 C19.6420898 -0.08879841 23.11805903 -0.1198104 26.59448242 -0.15136719 C28.8021612 -0.15789798 31.00984421 -0.16314815 33.2175293 -0.16699219 C34.25726395 -0.17933899 35.2969986 -0.19168579 36.36824036 -0.20440674 C45.64585953 -0.17582584 45.64585953 -0.17582584 49.35424805 3.16113281 C52.69289913 7.49099374 52.77909684 11.4716841 52.73519897 16.73913574 C52.74221893 18.03269651 52.74221893 18.03269651 52.74938071 19.35238981 C52.76134411 22.241268 52.75186818 25.129673 52.74243164 28.01855469 C52.74649674 30.08997372 52.75183827 32.16139059 52.75836182 34.23280334 C52.7720485 39.85875061 52.76673112 45.48453299 52.75722456 51.11048317 C52.74963501 56.99516879 52.75667162 62.8798402 52.76138306 68.76452637 C52.76684265 78.64724261 52.75964361 88.52989162 52.74536133 98.41259766 C52.72903446 109.84213445 52.73432282 121.2715107 52.75084054 132.70104361 C52.76444956 142.51007255 52.76637792 152.31905314 52.75852454 162.12808847 C52.75384482 167.98840879 52.75323141 173.84865363 52.763134 179.70896912 C52.77179284 185.21817486 52.76580142 190.7271734 52.74845123 196.23635674 C52.74448062 198.25962924 52.74563023 200.28291916 52.75223923 202.30618477 C52.76042201 205.0654028 52.7501726 207.82395445 52.73519897 210.58312988 C52.74523722 211.78765281 52.74523722 211.78765281 52.75547826 213.01650953 C52.70730424 217.58479151 52.16404105 220.51734028 49.35424805 224.16113281 C44.72578714 228.31524481 38.98341709 227.64638531 33.10424805 227.66503906 C32.01337891 227.67502426 30.92250977 227.68500946 29.79858398 227.69529724 C27.49556262 227.71046333 25.19247555 227.7175235 22.8894043 227.71704102 C19.36616795 227.72361059 15.84573701 227.77813463 12.32299805 227.83496094 C10.08342434 227.84376184 7.84383727 227.84971683 5.60424805 227.85253906 C4.55205078 227.87409561 3.49985352 227.89565216 2.41577148 227.91786194 C0.93898926 227.90401711 0.93898926 227.90401711 -0.56762695 227.88989258 C-1.86071777 227.89630516 -1.86071777 227.89630516 -3.17993164 227.90284729 C-6.85127626 226.79851319 -8.78543648 224.387378 -10.64575195 221.16113281 C-11.34304968 218.20065306 -11.31792549 215.34223464 -11.27394104 212.3110199 C-11.28103543 211.43145742 -11.28812981 210.55189494 -11.29543918 209.64567906 C-11.31301312 206.70433819 -11.29491746 203.7643198 -11.27685547 200.82299805 C-11.28199447 198.71201984 -11.2892756 196.60104593 -11.29853821 194.49008179 C-11.31706153 188.76078379 -11.3041079 183.03195082 -11.28444791 177.30267215 C-11.26807013 171.30855178 -11.276873 165.31446107 -11.28196716 159.32032776 C-11.28648873 149.25522426 -11.27061336 139.19030656 -11.24267578 129.12524414 C-11.21061504 117.48489576 -11.21064286 105.84488235 -11.22789055 94.20451015 C-11.24374731 83.00997045 -11.23702808 71.81555368 -11.21995354 60.62101936 C-11.2130769 55.85515131 -11.21412179 51.08938162 -11.22149849 46.32351494 C-11.22915261 40.71326806 -11.21706342 35.10340302 -11.18964958 29.49322128 C-11.18275587 27.43286714 -11.18267829 25.3724774 -11.18986511 23.31212425 C-11.19853741 20.50240899 -11.1826414 17.69387818 -11.16041565 14.88426208 C-11.16865642 14.06636513 -11.17689718 13.24846817 -11.18538767 12.40578645 C-11.12994682 8.61602491 -10.80079482 6.40361069 -8.73858547 3.17843723 C-5.71661825 0.26553098 -4.08555022 0.03278207 0 0 Z " fill="#0A2040" transform="translate(776.645751953125,519.8388671875)"/>
<path d="M0 0 C1.59671247 0.63489076 3.19305036 1.27072362 4.78923035 1.9069519 C6.12273167 2.43791883 6.12273167 2.43791883 7.48317242 2.97961235 C10.48508223 4.19666501 13.42741355 5.51445036 16.36328125 6.8828125 C18.04997925 7.66712646 18.04997925 7.66712646 19.77075195 8.46728516 C20.93952881 9.01433105 22.10830566 9.56137695 23.3125 10.125 C24.54574758 10.6998561 25.77906556 11.2745612 27.01245117 11.84912109 C35.47773333 15.79758167 43.92142542 19.79131855 52.33911133 23.84033203 C55.67820227 25.44257239 59.01165482 27.0049816 62.41796875 28.4609375 C68.11475853 30.90863125 73.67469887 33.6412979 79.26171875 36.328125 C84.13433821 38.66248238 89.02374643 40.89273732 94 43 C97.48528335 44.54893641 100.96128972 46.11832517 104.4375 47.6875 C105.35982422 48.10322266 106.28214844 48.51894531 107.23242188 48.94726562 C109.48853977 49.96427214 111.74439187 50.98186351 114 52 C112.49736176 57.07020985 110.96865749 62.12906021 109.3515625 67.1640625 C104.96044119 80.95878776 101.56843732 94.75441535 99 109 C98.84015625 109.85223145 98.6803125 110.70446289 98.515625 111.58251953 C95.06281546 130.50972012 95.26997404 149.82140234 95 169 C61.82910403 160.35099601 24.33715648 148.50573471 4.2890625 118.43359375 C0.43307377 111.15395441 -0.42997214 105.30951251 -0.34057617 97.17773438 C-0.34101425 96.12318054 -0.34145233 95.06862671 -0.34190369 93.9821167 C-0.33982457 90.51913517 -0.31653446 87.05664628 -0.29296875 83.59375 C-0.28736969 81.18379989 -0.28310106 78.77384635 -0.28010559 76.3638916 C-0.26868132 70.03782636 -0.23923471 63.71196954 -0.20599365 57.38598633 C-0.17524075 50.92401956 -0.16158909 44.46201894 -0.14648438 38 C-0.11436289 25.3332447 -0.06377678 12.66663346 0 0 Z " fill="#091F3F" transform="translate(360,490)"/>
<path d="M0 0 C9 3 9 3 17 7 C17 33.73 17 60.46 17 88 C18.65 88.66 20.3 89.32 22 90 C28.28703941 94.29358789 31.49021027 99.57686714 33 107 C33.77087473 114.37064431 32.75353173 121.23301562 28.3125 127.30859375 C23.7739486 132.6130257 23.7739486 132.6130257 21 134 C21.61223955 139.56916703 23.02656634 144.51509025 24.8125 149.8125 C27.64052701 158.46079451 29.71141409 167.13436812 31.57080078 176.03271484 C32.17324171 178.79407377 32.89797978 181.51915289 33.625 184.25 C35.07538065 189.98171819 35.89627105 195.7194104 36.67138672 201.57568359 C37.40859094 207.01434473 38.20715759 212.44422925 39 217.875 C39.1662085 219.04039307 39.33241699 220.20578613 39.50366211 221.40649414 C40.49337 228.28964693 40.49337 228.28964693 42.01953125 235.06640625 C43.42648241 240.31387935 44.01438979 245.68093413 44.6875 251.0625 C44.82994141 252.11244141 44.97238281 253.16238281 45.11914062 254.24414062 C45.81749954 259.76499793 46.15363259 264.54153706 45 270 C39.53705112 272.01266538 34.06954465 273.54330728 28.375 274.75 C27.14523437 275.01296875 25.91546875 275.2759375 24.6484375 275.546875 C20.82716595 276.02146547 17.76021421 275.77666893 14 275 C11.81875844 272.81875844 12.33113516 268.01475817 12.0625 264.98046875 C11.97750244 264.05269119 11.89250488 263.12491364 11.80493164 262.16902161 C11.62458753 260.18766875 11.44652045 258.20610757 11.27050781 256.22436523 C11.00694798 253.26550173 10.73456811 250.3075563 10.4609375 247.34960938 C9.3292644 234.90865047 8.5204433 222.48122321 8 210 C7.92816246 211.06662621 7.92816246 211.06662621 7.85487366 212.15480042 C7.40159223 218.87807801 6.94579101 225.60117956 6.48720646 232.32409763 C6.25156975 235.77985716 6.01688482 239.23567568 5.78442383 242.69165039 C5.51672036 246.67093386 5.24478929 250.64992315 4.97265625 254.62890625 C4.8491555 256.47773155 4.8491555 256.47773155 4.72315979 258.36390686 C3.86436132 270.82256531 3.86436132 270.82256531 3 275 C-4.32610473 278.66305236 -16.36977973 274.12366215 -23.98046875 272.1328125 C-27 271 -27 271 -29 268 C-29.19879314 258.20687811 -27.2753337 248.30944009 -25.70703125 238.671875 C-25.4759368 237.22963791 -25.24512391 235.78735568 -25.01457214 234.34503174 C-24.53200147 231.33578168 -24.04481229 228.32732467 -23.55444336 225.31933594 C-23.06195181 222.29564438 -22.57623931 219.27100251 -22.09741211 216.24511719 C-18.27625851 192.10226882 -14.11003479 168.12627819 -6.19921875 144.92578125 C-5.0340388 141.29974124 -4.21083497 137.82377975 -4 134 C-5.37324166 132.82772053 -6.76285494 131.66892012 -8.23046875 130.6171875 C-12.89176579 126.35719418 -15.51660696 119.96993756 -16.515625 113.83203125 C-16.8022754 105.75463237 -14.56420059 100.76082754 -10.125 94.25 C-7.65198199 91.63151034 -5.10141579 89.82039622 -2 88 C-1.34 88 -0.68 88 0 88 C0 58.96 0 29.92 0 0 Z " fill="#FBBC0D" transform="translate(254,418)"/>
<path d="M0 0 C0.95390625 -0.00524185 1.9078125 -0.0104837 2.890625 -0.0158844 C4.90103179 -0.02228821 6.91147614 -0.02098892 8.921875 -0.01245117 C11.99026375 -0.00393328 15.05679452 -0.0327385 18.125 -0.06445312 C20.08333278 -0.06606518 22.04166884 -0.06548753 24 -0.0625 C25.36898437 -0.07935097 25.36898437 -0.07935097 26.765625 -0.09654236 C32.33059493 -0.03591631 35.62323164 0.65820362 40 4.43359375 C42.33621768 7.93792026 42.25669738 9.34801135 42.27415466 13.49325562 C42.28911736 15.3944088 42.28911736 15.3944088 42.30438232 17.33396912 C42.30527814 18.7413634 42.3059417 20.14875785 42.30639648 21.55615234 C42.31401674 23.03615233 42.32244401 24.51614836 42.33161926 25.99613953 C42.35358427 30.01890419 42.36236581 34.04159283 42.36744571 38.06441069 C42.37108688 40.57728829 42.37732567 43.09014591 42.3844471 45.6030159 C42.40894842 54.36849087 42.42199499 63.1339066 42.42553711 71.89941406 C42.42917308 80.07189221 42.45907086 88.24399496 42.50094169 96.41635835 C42.53562345 103.43131404 42.55108518 110.44614519 42.55178314 117.46118605 C42.55257668 121.65163261 42.56135001 125.84169687 42.58978081 130.0320549 C42.61592565 133.97369351 42.61818733 137.91463191 42.60212517 141.85631752 C42.60030778 143.30231183 42.60702771 144.74834607 42.62294388 146.19425392 C42.64335872 148.16938721 42.62987916 150.1447839 42.61473083 152.1199646 C42.61674216 153.2249851 42.61875349 154.33000561 42.62082577 155.46851158 C41.7961506 159.40718448 40.06765923 160.91965148 37 163.43359375 C34.49621582 164.07524109 34.49621582 164.07524109 31.83007812 164.09643555 C30.82553589 164.11542404 29.82099365 164.13441254 28.78601074 164.15397644 C27.7119397 164.14699234 26.63786865 164.14000824 25.53125 164.1328125 C23.86165222 164.14354546 23.86165222 164.14354546 22.1583252 164.15449524 C19.808195 164.16226956 17.45799255 164.15726595 15.10791016 164.14038086 C11.51196131 164.12115769 7.91987729 164.16054451 4.32421875 164.20507812 C2.0390602 164.20536849 -0.2461019 164.20222848 -2.53125 164.1953125 C-3.60532104 164.21059494 -4.67939209 164.22587738 -5.78601074 164.24162292 C-6.79055298 164.22593765 -7.79509521 164.21025238 -8.83007812 164.1940918 C-9.70990356 164.19233444 -10.589729 164.19057709 -11.49621582 164.18876648 C-14.43280288 163.30305497 -16.18217153 162.08354701 -18.02753448 159.61790371 C-20.30313332 154.50655207 -19.67053564 148.64731002 -19.61523438 143.15405273 C-19.61873791 141.69331213 -19.62439912 140.23257535 -19.63204956 138.77185059 C-19.64627286 134.81513022 -19.6292615 130.85910685 -19.60576439 126.90245318 C-19.58562847 122.75813759 -19.5915363 118.61385017 -19.59387207 114.46949768 C-19.59381853 107.51153087 -19.57408158 100.55383594 -19.54199219 93.59594727 C-19.50508637 85.55469242 -19.49631898 77.51379346 -19.5032897 69.47246498 C-19.50959701 61.73141712 -19.49883714 53.99049112 -19.47932434 46.24946785 C-19.47115537 42.95730921 -19.46843986 39.66521289 -19.47001648 36.37304497 C-19.47089608 32.49628337 -19.45665933 28.61985945 -19.43078995 24.74318695 C-19.42363443 23.32141062 -19.42154159 21.89959835 -19.42490768 20.477808 C-19.42862859 18.53555155 -19.41201693 16.59328798 -19.39440918 14.65110779 C-19.39068047 13.56473243 -19.38695175 12.47835707 -19.38311005 11.35906124 C-18.94411582 8.00685643 -17.99301349 6.14251424 -16 3.43359375 C-10.89117282 -0.12593875 -5.99713219 -0.0192903 0 0 Z " fill="#0B2141" transform="translate(697,583.56640625)"/>
<path d="M0 0 C8.54375601 6.46904966 14.84230827 15.94563734 17.03125 26.5078125 C18.69698609 39.62833647 16.32900277 50.82030427 8.28515625 61.4375 C1.06592875 69.9315514 -7.55493152 75.66988711 -18.68359375 77.75390625 C-28.19543459 78.44382574 -35.92450515 77.71428624 -44.68359375 73.75390625 C-46.34801283 73.08164785 -48.01407427 72.41339615 -49.68359375 71.75390625 C-50.45703125 72.53894531 -51.23046875 73.32398438 -52.02734375 74.1328125 C-57.10847221 79.26630686 -62.18637973 84.29776984 -67.69140625 88.98046875 C-71.02406226 91.94718606 -74.10361026 95.16682816 -77.23828125 98.33984375 C-79.97482854 101.04141919 -82.83338741 103.5446936 -85.75390625 106.04296875 C-87.81667896 107.87190488 -89.74950095 109.78971083 -91.68359375 111.75390625 C-94.13022812 114.23353954 -96.60467149 116.60831001 -99.24609375 118.87890625 C-103.17272102 122.26102076 -106.96249154 125.77637736 -110.74609375 129.31640625 C-111.70092651 130.20839722 -111.70092651 130.20839722 -112.67504883 131.1184082 C-116.08967877 134.31249317 -119.49218749 137.51872474 -122.8828125 140.73828125 C-123.90072876 141.70012329 -123.90072876 141.70012329 -124.93920898 142.68139648 C-126.24593165 143.91645655 -127.54897815 145.1554204 -128.84790039 146.39868164 C-129.73336548 147.23387329 -129.73336548 147.23387329 -130.63671875 148.0859375 C-131.41257324 148.82420776 -131.41257324 148.82420776 -132.20410156 149.57739258 C-133.68359375 150.75390625 -133.68359375 150.75390625 -136.68359375 151.75390625 C-137.83623928 150.00838561 -138.98046702 148.25730429 -140.12109375 146.50390625 C-140.75917969 145.529375 -141.39726563 144.55484375 -142.0546875 143.55078125 C-144.68359375 139.03687987 -144.68359375 139.03687987 -144.68359375 136.75390625 C-142.875 134.421875 -142.875 134.421875 -140.24609375 131.94140625 C-139.32054687 131.0596875 -138.395 130.17796875 -137.44140625 129.26953125 C-134.56003174 126.64119529 -131.64358522 124.06577018 -128.6796875 121.53125 C-125.61829735 118.80535466 -122.78394211 115.86249267 -119.90625 112.9453125 C-117.25657935 110.33289557 -114.47186572 107.92088004 -111.6484375 105.5 C-109.57539051 103.6577495 -107.62923573 101.72988963 -105.68359375 99.75390625 C-103.12369241 97.15408442 -100.51579835 94.69122227 -97.74609375 92.31640625 C-94.75557659 89.74725354 -91.95242691 87.06073369 -89.18359375 84.25390625 C-85.82502579 80.84933051 -82.35266029 77.68358476 -78.72265625 74.57421875 C-75.61404165 71.79909537 -72.72993878 68.80955936 -69.8046875 65.84375 C-67.21976046 63.2969066 -64.52272077 61.01064824 -61.68359375 58.75390625 C-62.04453125 57.98691406 -62.40546875 57.21992188 -62.77734375 56.4296875 C-67.51778603 45.09212971 -69.71615036 31.42651844 -65.3515625 19.578125 C-63.80460268 16.07140846 -61.85454687 12.91399185 -59.68359375 9.75390625 C-58.87341797 8.57441406 -58.87341797 8.57441406 -58.046875 7.37109375 C-43.32714153 -11.37607285 -18.9820932 -12.15707092 0 0 Z " fill="#FBBC0A" transform="translate(1073.68359375,348.24609375)"/>
<path d="M0 0 C1.17441535 2.10016623 2.33964012 4.20458755 3.5 6.3125 C3.83386719 6.90740234 4.16773438 7.50230469 4.51171875 8.11523438 C6.06825114 10.95828844 7 12.70660988 7 16 C6.49364014 16.25056152 5.98728027 16.50112305 5.46557617 16.75927734 C-4.4926513 21.69418949 -14.40593813 26.69722599 -24.22680664 31.90039062 C-31.54347421 35.77256886 -38.89456659 39.5771705 -46.25 43.375 C-58.8508892 49.88320755 -71.43097312 56.43046242 -84 63 C-88.18714337 65.18818345 -92.37472074 67.37553383 -96.5625 69.5625 C-97.52075684 70.06354248 -98.47901367 70.56458496 -99.46630859 71.08081055 C-103.95873843 73.42683935 -108.45635192 75.75463647 -113 78 C-112.94779297 78.87398437 -112.94779297 78.87398437 -112.89453125 79.765625 C-112.4840717 92.19668581 -116.16572894 102.15144933 -123.25 112.1875 C-131.66185792 120.79053651 -141.96358116 125.3432427 -154 125.5 C-165.23457686 125.34065364 -174.62171187 121.50763127 -183 114 C-192.56107999 102.80039218 -195.06682203 91.48247445 -194 77 C-192.51475916 70.66656367 -189.98597699 65.15832316 -186 60 C-185.59265625 59.43796875 -185.1853125 58.8759375 -184.765625 58.296875 C-179.19144556 51.09428359 -170.6891739 46.0940719 -161.75 44.375 C-149.39613472 43.13961347 -139.645677 45.39480875 -129 52 C-126.76069378 54.08436246 -124.75964019 56.19802098 -122.81640625 58.55859375 C-121.11166561 60.24533725 -121.11166561 60.24533725 -118.90844727 59.84765625 C-114.88400869 58.67474844 -111.35553132 56.81507942 -107.6484375 54.87890625 C-106.83492828 54.46011703 -106.02141907 54.04132782 -105.18325806 53.60984802 C-102.57747208 52.26651404 -99.97625527 50.91458263 -97.375 49.5625 C-95.67997193 48.68759976 -93.98466176 47.81324584 -92.2890625 46.93945312 C-83.07271403 42.18315386 -73.88637967 37.37076054 -64.7124939 32.53315735 C-57.82645897 28.90331333 -50.91825173 25.31811988 -44 21.75 C-41.52454311 20.47303665 -39.04927832 19.19570203 -36.57421875 17.91796875 C-35.95407394 17.59787338 -35.33392914 17.27777802 -34.69499207 16.94798279 C-30.19161296 14.62128613 -25.69787601 12.27656246 -21.20703125 9.92578125 C-19.34217162 8.95153192 -17.47714566 7.97760178 -15.61206055 7.00378418 C-13.84079753 6.0773014 -12.07174623 5.14659422 -10.30273438 4.21582031 C-9.23990234 3.66120117 -8.17707031 3.10658203 -7.08203125 2.53515625 C-5.67787964 1.79857788 -5.67787964 1.79857788 -4.24536133 1.04711914 C-2 0 -2 0 0 0 Z " fill="#0A2040" transform="translate(489,768)"/>
<path d="M0 0 C4.36679564 1.32327141 7.13578257 3.6552884 10.44921875 6.66015625 C11.97649454 8.09089081 11.97649454 8.09089081 14 9 C12.63146141 13.06960159 10.81892472 15.58458283 7.875 18.6875 C4.1537497 22.70999437 0.67052635 26.82472899 -2.72265625 31.125 C-5.51450474 34.64952915 -8.34920369 38.1378424 -11.1875 41.625 C-12.0062561 42.63167725 -12.0062561 42.63167725 -12.84155273 43.65869141 C-13.973348 45.05022949 -15.10526757 46.44166647 -16.23730469 47.83300781 C-19.26404857 51.55397439 -22.28812229 55.27711018 -25.3125 59 C-26.41274869 60.35417619 -27.513008 61.70834376 -28.61328125 63.0625 C-29.40089844 64.031875 -30.18851563 65.00125 -31 66 C-30.0111199 68.59154785 -29.17105844 70.77192208 -27.5 73 C-24.34095791 77.21205612 -23.75795963 80.796132 -24 86 C-23.34 86 -22.68 86 -22 86 C-21.57609007 95.49087222 -21.36398523 103.41301732 -26 112 C-26.32355469 112.64324219 -26.64710938 113.28648437 -26.98046875 113.94921875 C-31.19243379 121.87458971 -36.32332146 126.59210071 -44 131 C-45.07507813 131.62648438 -45.07507813 131.62648438 -46.171875 132.265625 C-54.87345801 136.52640013 -65.63912759 136.25227084 -74.99609375 134.41015625 C-84.5926155 131.0782439 -93.0142399 123.63016303 -97.78515625 114.73828125 C-103.32664362 102.2476618 -104.81306259 91.88952747 -100 79 C-94.96126222 68.22808302 -87.47632495 60.44470647 -76.48046875 55.875 C-66.7869654 52.45555945 -55.78609416 53.2530262 -46 56 C-40.44419753 49.49981157 -34.92299981 43.00246202 -29.71875 36.21484375 C-27.07778479 32.81159995 -24.33350406 29.49509756 -21.59765625 26.16796875 C-19.63747342 23.78249971 -17.68963341 21.38732919 -15.74609375 18.98828125 C-15.17842285 18.28775635 -14.61075195 17.58723145 -14.02587891 16.86547852 C-12.91415501 15.49285276 -11.80311134 14.11967568 -10.69287109 12.74584961 C-7.19844921 8.4342623 -3.62838969 4.19957548 0 0 Z " fill="#FBBC0B" transform="translate(556,825)"/>
<path d="M0 0 C2.4710929 2.4710929 2.25384777 3.17101486 2.26742554 6.57270813 C2.27595551 7.53585937 2.28448547 8.49901062 2.29327393 9.49134827 C2.29236755 10.55163742 2.29146118 11.61192657 2.29052734 12.7043457 C2.29724457 13.81826691 2.30396179 14.93218811 2.31088257 16.0798645 C2.32994901 19.77854826 2.33379131 23.47705135 2.3359375 27.17578125 C2.34236002 29.73927384 2.34908796 32.30276569 2.35610962 34.86625671 C2.36810448 40.24736542 2.37187367 45.62840205 2.37060547 51.00952148 C2.3694048 57.22620838 2.39048829 63.44254766 2.4220928 69.65914661 C2.45141571 75.64032005 2.45858102 81.6213051 2.45738602 87.60256004 C2.45974933 90.14670416 2.46861368 92.69085073 2.48405075 95.23494911 C2.50361453 98.79275053 2.49790935 102.34965529 2.48583984 105.9074707 C2.49707886 106.96168716 2.50831787 108.01590363 2.51989746 109.10206604 C2.48205216 113.48530605 2.40498576 116.26460864 0.26370239 120.15284729 C-2.31577526 122.25766865 -3.4153604 122.63089607 -6.70507812 122.64697266 C-7.63284058 122.66273346 -8.56060303 122.67849426 -9.51647949 122.69473267 C-11.00879089 122.67955093 -11.00879089 122.67955093 -12.53125 122.6640625 C-14.07335144 122.67123795 -14.07335144 122.67123795 -15.64660645 122.67855835 C-17.81861909 122.68195843 -19.99068284 122.67274854 -22.16259766 122.65185547 C-25.48846472 122.62509282 -28.81095674 122.65160107 -32.13671875 122.68359375 C-34.24740329 122.68028967 -36.35808572 122.67388349 -38.46875 122.6640625 C-39.46362427 122.67418365 -40.45849854 122.68430481 -41.48352051 122.69473267 C-42.87516418 122.67109146 -42.87516418 122.67109146 -44.29492188 122.64697266 C-45.10892456 122.64299469 -45.92292725 122.63901672 -46.76159668 122.63491821 C-50.24854365 121.64585332 -51.2102805 120.11725377 -53 117 C-53.57061721 113.9563811 -53.55708283 110.97272535 -53.53344727 107.8828125 C-53.54206284 106.9732782 -53.55067841 106.0637439 -53.55955505 105.12664795 C-53.58222307 102.12580762 -53.57547498 99.12590044 -53.56640625 96.125 C-53.57164119 94.03661827 -53.57791719 91.94823891 -53.58518982 89.85986328 C-53.59559538 85.48523829 -53.59102977 81.11093857 -53.57641602 76.73632812 C-53.55922194 71.13044931 -53.58273081 65.52559484 -53.61790562 59.91983032 C-53.63986515 55.60808521 -53.6384417 51.29658579 -53.6301403 46.98480225 C-53.62932012 44.91793697 -53.63619637 42.85105378 -53.65091133 40.78424072 C-53.66833171 37.89458204 -53.65383587 35.00677179 -53.63110352 32.1171875 C-53.64279572 31.26404968 -53.65448792 30.41091187 -53.66653442 29.53192139 C-53.59865507 25.29104179 -53.40527572 23.52510046 -50.73777771 20.06892395 C-48.34483577 18.26059054 -46.31551413 16.93110564 -43.56445312 15.7800293 C-42.7200769 15.42003342 -41.87570068 15.06003754 -41.0057373 14.68913269 C-39.65711609 14.13725029 -39.65711609 14.13725029 -38.28125 13.57421875 C-36.87800476 12.98553764 -36.87800476 12.98553764 -35.44641113 12.38496399 C-33.47538322 11.5614657 -31.5018056 10.74404673 -29.52587891 9.93237305 C-26.50378801 8.68905842 -23.49187032 7.42325071 -20.48046875 6.15429688 C-18.56045856 5.35541705 -16.63990326 4.5578458 -14.71875 3.76171875 C-13.81966919 3.38367599 -12.92058838 3.00563324 -11.9942627 2.61613464 C-11.14988647 2.27189957 -10.30551025 1.92766449 -9.43554688 1.57299805 C-8.69784058 1.268311 -7.96013428 0.96362396 -7.20007324 0.64970398 C-4.6585854 -0.1008232 -2.63645968 -0.25077073 0 0 Z " fill="#FBBC0C" transform="translate(650,625)"/>
<path d="M0 0 C0.66 0 1.32 0 2 0 C2.6428137 41.57521236 2.6428137 41.57521236 -1 57 C-1.20931152 57.8863916 -1.41862305 58.7727832 -1.63427734 59.68603516 C-3.21756246 66.18837313 -5.02103278 72.60747276 -7 79 C-7.32991943 80.06613525 -7.32991943 80.06613525 -7.66650391 81.15380859 C-21.75345018 125.19313793 -54.95654309 160.62209742 -95.45458984 181.80810547 C-132.07999325 200.33994765 -176.04504057 205.86588875 -216 196 C-217.27157959 195.68651611 -217.27157959 195.68651611 -218.56884766 195.36669922 C-250.92175406 187.07824594 -250.92175406 187.07824594 -259 179 C-255.2248524 179.58248274 -251.6128157 180.34391596 -247.9375 181.375 C-196.97442595 193.94547878 -141.50010932 183.65857942 -96.8125 156.6875 C-84.06265679 148.80625052 -72.80587477 139.34353386 -62 129 C-61.50258301 128.52981445 -61.00516602 128.05962891 -60.49267578 127.57519531 C-52.49251155 119.98364853 -45.57451177 111.84714875 -39 103 C-38.37609375 102.17113281 -37.7521875 101.34226562 -37.109375 100.48828125 C-15.8402024 71.21832177 -2.91368162 36.00788627 0 0 Z " fill="#0C2040" transform="translate(894,624)"/>
<path d="M0 0 C1.3671875 1.64453125 1.3671875 1.64453125 2.875 3.8125 C4.97240426 6.8268323 6.96493126 8.91749613 10 11 C6.70124753 18.8843809 -1.56731317 24.71076771 -7.9375 30.15625 C-11.28899052 33.1522794 -14.39635028 36.38896618 -17.5546875 39.5859375 C-20.29123479 42.28751294 -23.14979366 44.79078735 -26.0703125 47.2890625 C-28.13308521 49.11799863 -30.0659072 51.03580458 -32 53 C-34.44663437 55.47963329 -36.92107774 57.85440376 -39.5625 60.125 C-43.48912727 63.50711451 -47.27889779 67.02247111 -51.0625 70.5625 C-51.69905518 71.15716064 -52.33561035 71.75182129 -52.99145508 72.36450195 C-56.40608502 75.55858692 -59.80859374 78.76481849 -63.19921875 81.984375 C-63.87782959 82.62560303 -64.55644043 83.26683105 -65.25561523 83.92749023 C-66.5623379 85.1625503 -67.8653844 86.40151415 -69.16430664 87.64477539 C-70.04977173 88.47996704 -70.04977173 88.47996704 -70.953125 89.33203125 C-71.47036133 89.82421143 -71.98759766 90.3163916 -72.52050781 90.82348633 C-74 92 -74 92 -77 93 C-78.15264553 91.25447936 -79.29687327 89.50339804 -80.4375 87.75 C-81.07558594 86.77546875 -81.71367188 85.8009375 -82.37109375 84.796875 C-85 80.28297362 -85 80.28297362 -85 78 C-83.19140625 75.66796875 -83.19140625 75.66796875 -80.5625 73.1875 C-79.63695312 72.30578125 -78.71140625 71.4240625 -77.7578125 70.515625 C-74.87643799 67.88728904 -71.95999147 65.31186393 -68.99609375 62.77734375 C-65.9347036 60.05144841 -63.10034836 57.10858642 -60.22265625 54.19140625 C-57.5729856 51.57898932 -54.78827197 49.16697379 -51.96484375 46.74609375 C-49.89179676 44.90384325 -47.94564198 42.97598338 -46 41 C-43.44009866 38.40017817 -40.8322046 35.93731602 -38.0625 33.5625 C-35.07198284 30.99334729 -32.26883316 28.30682744 -29.5 25.5 C-26.14143204 22.09542426 -22.66906654 18.92967851 -19.0390625 15.8203125 C-16.72548567 13.75493548 -14.55324976 11.58239023 -12.375 9.375 C-3.09615385 0 -3.09615385 0 0 0 Z " fill="#0B1F3E" transform="translate(1014,407)"/>
<path d="M0 0 C4.36679564 1.32327141 7.13578257 3.6552884 10.44921875 6.66015625 C11.97649454 8.09089081 11.97649454 8.09089081 14 9 C12.63146141 13.06960159 10.81892472 15.58458283 7.875 18.6875 C4.1537497 22.70999437 0.67052635 26.82472899 -2.72265625 31.125 C-6.05782278 35.33543322 -9.45088336 39.49827013 -12.84814453 43.65869141 C-15.80160936 47.27892977 -18.7300981 50.91554873 -21.62109375 54.5859375 C-22.20802002 55.32505371 -22.79494629 56.06416992 -23.3996582 56.82568359 C-24.53184865 58.25249669 -25.65695498 59.68496587 -26.77416992 61.12353516 C-28.11516848 62.80523585 -29.55041194 64.4109472 -31 66 C-34.56216738 66 -35.22928478 65.2978099 -37.9375 63.125 C-40.53297716 61.05461937 -42.98023607 59.39165855 -46 58 C-44.51978375 54.72558224 -42.64606801 52.15276048 -40.375 49.375 C-39.65957031 48.49457031 -38.94414063 47.61414063 -38.20703125 46.70703125 C-37.47871094 45.81371094 -36.75039063 44.92039062 -36 44 C-34.68590253 42.35544187 -33.37337324 40.70962931 -32.0625 39.0625 C-28.59379039 34.72661299 -25.0846084 30.42538212 -21.5625 26.1328125 C-19.61721111 23.75887421 -17.68204544 21.37691568 -15.75 18.9921875 C-15.18176514 18.29109863 -14.61353027 17.59000977 -14.02807617 16.86767578 C-12.91546836 15.4942931 -11.80360603 14.12030603 -10.69262695 12.74560547 C-7.19833855 8.43405654 -3.62831467 4.19948864 0 0 Z " fill="#0C1F3D" transform="translate(556,825)"/>
<path d="M0 0 C0.66 0 1.32 0 2 0 C2 12.21 2 24.42 2 37 C0.35 36.67 -1.3 36.34 -3 36 C-3.268125 36.969375 -3.53625 37.93875 -3.8125 38.9375 C-4.204375 39.948125 -4.59625 40.95875 -5 42 C-6.485 42.495 -6.485 42.495 -8 43 C-7.74605469 42.01902344 -7.49210938 41.03804687 -7.23046875 40.02734375 C-3.83978395 26.79524179 -0.73948106 13.69314933 0 0 Z " fill="#20283E" transform="translate(894,624)"/>
<path d="M0 0 C14.52 0 29.04 0 44 0 C44 0.99 44 1.98 44 3 C29.15 3 14.3 3 -1 3 C-0.67 2.01 -0.34 1.02 0 0 Z " fill="#212D48" transform="translate(687,584)"/>
<path d="M0 0 C0.33 0 0.66 0 1 0 C2.23419997 6.71052696 2.42878355 13.38153254 2.6875 20.1875 C2.74744141 21.47076172 2.80738281 22.75402344 2.86914062 24.07617188 C2.91619141 25.30271484 2.96324219 26.52925781 3.01171875 27.79296875 C3.05772217 28.9121167 3.10372559 30.03126465 3.15112305 31.18432617 C3 34 3 34 1 37 C0.67 37 0.34 37 0 37 C-0.66 44.59 -1.32 52.18 -2 60 C-2.33 60 -2.66 60 -3 60 C-3.29287137 50.61184561 -2.66850786 41.47483408 -1.78613281 32.13818359 C-0.80181435 21.44203973 -0.3691062 10.73258795 0 0 Z " fill="#FCF1D6" transform="translate(261,622)"/>
<path d="M0 0 C2.95499307 1.32900341 5.01274778 2.77299793 7.27734375 5.08203125 C8.17163086 5.98598633 8.17163086 5.98598633 9.08398438 6.90820312 C9.69564453 7.53662109 10.30730469 8.16503906 10.9375 8.8125 C11.54529297 9.42931641 12.15308594 10.04613281 12.77929688 10.68164062 C13.96988594 11.89021054 15.15669426 13.10251873 16.33935547 14.31884766 C17.39215571 15.38464925 18.46243367 16.43368583 19.55517578 17.45849609 C20.75504527 18.58651711 21.8851721 19.78786265 23 21 C23 21.99 23 22.98 23 24 C22.67 23.34 22.34 22.68 22 22 C21.11296387 21.56880859 21.11296387 21.56880859 20.20800781 21.12890625 C17.53065024 19.7600317 15.80037348 18.05944925 13.671875 15.9375 C12.87265625 15.14085937 12.0734375 14.34421875 11.25 13.5234375 C10.425 12.69070313 9.6 11.85796875 8.75 11 C7.90953125 10.16726563 7.0690625 9.33453125 6.203125 8.4765625 C5.4090625 7.67992187 4.615 6.88328125 3.796875 6.0625 C2.70391113 4.96615234 2.70391113 4.96615234 1.58886719 3.84765625 C0 2 0 2 0 0 Z " fill="#232D4A" transform="translate(979,863)"/>
<path d="M0 0 C4.08893003 0.63375369 8.05669404 1.46624362 12.0625 2.5 C15.69546117 3.43512514 19.31473653 4.29675706 23 5 C22.34 5.66 21.68 6.32 21 7 C22.98 7.66 24.96 8.32 27 9 C25.30712891 10.10644531 25.30712891 10.10644531 23 11 C20.64990234 10.43261719 20.64990234 10.43261719 18.0859375 9.296875 C16.69761719 8.69166016 16.69761719 8.69166016 15.28125 8.07421875 C14.3221875 7.63722656 13.363125 7.20023438 12.375 6.75 C11.40820312 6.32847656 10.44140625 5.90695312 9.4453125 5.47265625 C2.31643562 2.31643562 2.31643562 2.31643562 0 0 Z " fill="#293049" transform="translate(635,803)"/>
<path d="M0 0 C2.13181214 3.74287627 1.95685425 5.78984129 1 10 C0.01 10 -0.98 10 -2 10 C-2 14.62 -2 19.24 -2 24 C-2.33 24 -2.66 24 -3 24 C-3.30654742 15.38261147 -3.39589303 8.06524596 0 0 Z " fill="#323A51" transform="translate(298,836)"/>
<path d="M0 0 C0.66 0 1.32 0 2 0 C2 0.66 2 1.32 2 2 C2.87398437 2.39832031 2.87398437 2.39832031 3.765625 2.8046875 C6.06174228 4.03302996 7.80356018 5.40314939 9.75 7.125 C10.67039062 7.93324219 10.67039062 7.93324219 11.609375 8.7578125 C12.06828125 9.16773438 12.5271875 9.57765625 13 10 C12.01 10.66 11.02 11.32 10 12 C8.51476358 10.56877218 7.03699538 9.12979111 5.5625 7.6875 C4.73878906 6.88699219 3.91507813 6.08648438 3.06640625 5.26171875 C1 3 1 3 0 0 Z " fill="#1F2A46" transform="translate(921,915)"/>
<path d="M0 0 C0.33 0 0.66 0 1 0 C1.10792837 2.60527105 1.18724878 5.20608311 1.25 7.8125 C1.28351562 8.55048828 1.31703125 9.28847656 1.3515625 10.04882812 C1.390625 12.20703125 1.390625 12.20703125 1 16 C-0.32 16.99 -1.64 17.98 -3 19 C-2.67 15.37 -2.34 11.74 -2 8 C-1.67 8 -1.34 8 -1 8 C-0.67 5.36 -0.34 2.72 0 0 Z " fill="#FCC947" transform="translate(533,911)"/>
<path d="M0 0 C0.99 0.66 1.98 1.32 3 2 C3 2.99 3 3.98 3 5 C3.7425 5.2475 4.485 5.495 5.25 5.75 C8.20124062 7.09147301 9.84814974 8.60905526 12 11 C11.67 11.66 11.34 12.32 11 13 C10.56429687 12.60167969 10.12859375 12.20335937 9.6796875 11.79296875 C5.99005314 8.51063169 2.56922802 6.00600254 -2 4 C-1.34 2.68 -0.68 1.36 0 0 Z " fill="#1F2232" transform="translate(512,879)"/>
<path d="M0 0 C0.99 0.66 1.98 1.32 3 2 C2.39671875 2.26554688 1.7934375 2.53109375 1.171875 2.8046875 C0.37265625 3.15789063 -0.4265625 3.51109375 -1.25 3.875 C-2.03890625 4.22304688 -2.8278125 4.57109375 -3.640625 4.9296875 C-5.98689153 5.94545764 -5.98689153 5.94545764 -8.046875 7.1953125 C-10 8 -10 8 -14 7 C-9.38 4.69 -4.76 2.38 0 0 Z " fill="#192543" transform="translate(483,770)"/>
<path d="M0 0 C0.66 0.33 1.32 0.66 2 1 C0.42687016 2.8223088 -1.15736799 4.63236793 -2.75 6.4375 C-3.41515625 7.2119043 -3.41515625 7.2119043 -4.09375 8.00195312 C-6.52915356 10.74178213 -8.24061317 12.65743905 -12 13 C-8.19524578 8.43969176 -4.25030379 4.14910608 0 0 Z " fill="#232940" transform="translate(840,745)"/>
<path d="M0 0 C-0.1875 1.875 -0.1875 1.875 -1 4 C-3.5625 5.25 -3.5625 5.25 -6 6 C-6 6.66 -6 7.32 -6 8 C-7.32 8.33 -8.64 8.66 -10 9 C-8.5124715 4.98367305 -4.56813239 0 0 0 Z " fill="#1B2A46" transform="translate(1014,407)"/>
<path d="M0 0 C0.33 0.99 0.66 1.98 1 3 C-5.5 6.125 -5.5 6.125 -10 5 C-6.7 3.35 -3.4 1.7 0 0 Z " fill="#1B2944" transform="translate(456,784)"/>
<path d="M0 0 C0.33 0 0.66 0 1 0 C1.14285714 7.42857143 1.14285714 7.42857143 0 11 C-0.66 11 -1.32 11 -2 11 C-2.33 11.99 -2.66 12.98 -3 14 C-2.48594831 9.03083364 -1.76615118 4.70973649 0 0 Z " fill="#F8C33E" transform="translate(487,567)"/>
<path d="M0 0 C0.99 0.66 1.98 1.32 3 2 C1.25 4.0625 1.25 4.0625 -1 6 C-3.25 5.75 -3.25 5.75 -5 5 C-3.35 3.35 -1.7 1.7 0 0 Z " fill="#FBC026" transform="translate(248,509)"/>
<path d="M0 0 C0.33 1.32 0.66 2.64 1 4 C-1.31 5.98 -3.62 7.96 -6 10 C-6 6.41087588 -5.33563446 5.89142971 -3 3.3125 C-2.443125 2.68988281 -1.88625 2.06726563 -1.3125 1.42578125 C-0.879375 0.95527344 -0.44625 0.48476563 0 0 Z " fill="#FABF20" transform="translate(542,472)"/>
<path d="M0 0 C0.66 0.33 1.32 0.66 2 1 C0.54744301 4.82946843 -1.42895561 6.12050295 -5 8 C-5 5 -5 5 -2.5 2.3125 C-1.675 1.549375 -0.85 0.78625 0 0 Z " fill="#1D283F" transform="translate(956,459)"/>
<path d="M0 0 C0.99 0.33 1.98 0.66 3 1 C1.35 2.65 -0.3 4.3 -2 6 C-2.66 5.34 -3.32 4.68 -4 4 C-2.68 2.68 -1.36 1.36 0 0 Z " fill="#152643" transform="translate(939,475)"/>
<path d="M0 0 C-0.66 1.32 -1.32 2.64 -2 4 C-4.64 4 -7.28 4 -10 4 C-6.74659338 1.32755885 -4.23938937 0 0 0 Z " fill="#FAC023" transform="translate(1038,342)"/>
<path d="M0 0 C0.33 0 0.66 0 1 0 C1.33 1.98 1.66 3.96 2 6 C-0.95664519 7.4783226 -3.74229737 7.06032783 -7 7 C-6.01 6.67 -5.02 6.34 -4 6 C-4 5.34 -4 4.68 -4 4 C-2.68 4 -1.36 4 0 4 C0 2.68 0 1.36 0 0 Z " fill="#FCC324" transform="translate(255,687)"/>
<path d="M0 0 C0.33 0 0.66 0 1 0 C0.67 2.31 0.34 4.62 0 7 C-0.99 7.33 -1.98 7.66 -3 8 C-3.99 7.34 -4.98 6.68 -6 6 C-5.01 5.67 -4.02 5.34 -3 5 C-2.67 4.01 -2.34 3.02 -2 2 C-1.34 2 -0.68 2 0 2 C0 1.34 0 0.68 0 0 Z " fill="#FBBC20" transform="translate(299,681)"/>
<path d="M0 0 C1.98 0.495 1.98 0.495 4 1 C3.67 2.65 3.34 4.3 3 6 C1.68 5.67 0.36 5.34 -1 5 C-0.67 3.35 -0.34 1.7 0 0 Z " fill="#0D1631" transform="translate(889,348)"/>
<path d="M0 0 C3.7952131 1.49097658 5.61042731 3.75700849 8 7 C5 7 5 7 2.3125 4.625 C0 2 0 2 0 0 Z " fill="#2A334B" transform="translate(881,849)"/>
<path d="M0 0 C2.0625 0.4375 2.0625 0.4375 4 1 C2.35 2.98 0.7 4.96 -1 7 C-1.99 6.34 -2.98 5.68 -4 5 C-2.68 4.67 -1.36 4.34 0 4 C-0.33 3.01 -0.66 2.02 -1 1 C-0.67 0.67 -0.34 0.34 0 0 Z " fill="#EABC12" transform="translate(890,807)"/>
<path d="M0 0 C0.99 0 1.98 0 3 0 C3.185625 0.9590625 3.185625 0.9590625 3.375 1.9375 C3.684375 2.9584375 3.684375 2.9584375 4 4 C4.66 4.33 5.32 4.66 6 5 C6 5.66 6 6.32 6 7 C6.99 7.33 7.98 7.66 9 8 C5.41209425 7.70100785 4.21833224 7.23013399 1.6875 4.5625 C0 2 0 2 0 0 Z " fill="#1F2947" transform="translate(766,739)"/>
<path d="M0 0 C0.66 0.99 1.32 1.98 2 3 C0.02 5.97 0.02 5.97 -2 9 C-2.66 8.67 -3.32 8.34 -4 8 C-2.87548273 5.0280615 -1.77706209 2.66559313 0 0 Z " fill="#182947" transform="translate(498,489)"/>
<path d="M0 0 C-0.33 0.99 -0.66 1.98 -1 3 C-4.63 2.67 -8.26 2.34 -12 2 C-12 1.67 -12 1.34 -12 1 C-7.93631321 0.22596442 -4.13574827 -0.0984702 0 0 Z " fill="#162B4D" transform="translate(344,890)"/>
<path d="M0 0 C3.45925163 1.2491742 6.14693203 2.67527795 9 5 C3.25 5.125 3.25 5.125 1 4 C0.375 1.9375 0.375 1.9375 0 0 Z " fill="#252F4C" transform="translate(421,518)"/>
<path d="M0 0 C0.433125 0.474375 0.86625 0.94875 1.3125 1.4375 C3.02309613 3.23686957 3.02309613 3.23686957 6 4 C5.67 5.32 5.34 6.64 5 8 C4.34 8 3.68 8 3 8 C0.95830515 5.09451118 0 3.59857954 0 0 Z " fill="#1E2337" transform="translate(934,492)"/>
<path d="M0 0 C0.66 0.33 1.32 0.66 2 1 C1.3125 2.9375 1.3125 2.9375 0 5 C-2.625 5.75 -2.625 5.75 -5 6 C-3.35 4.02 -1.7 2.04 0 0 Z " fill="#192944" transform="translate(986,431)"/>
<path d="M0 0 C4.75 1.875 4.75 1.875 7 3 C6.34 4.65 5.68 6.3 5 8 C4.87625 7.071875 4.87625 7.071875 4.75 6.125 C4.18741541 3.81562433 4.18741541 3.81562433 1.9375 2.75 C1.298125 2.5025 0.65875 2.255 0 2 C0 1.34 0 0.68 0 0 Z " fill="#1C2230" transform="translate(563,831)"/>
<path d="M0 0 C0.66 0.99 1.32 1.98 2 3 C0.35 4.32 -1.3 5.64 -3 7 C-3 3 -3 3 -1.5 1.25 C-1.005 0.8375 -0.51 0.425 0 0 Z " fill="#DFB00E" transform="translate(884,814)"/>
<path d="M0 0 C0.33 0 0.66 0 1 0 C1 2.97 1 5.94 1 9 C0.01 8.67 -0.98 8.34 -2 8 C-1.125 2.25 -1.125 2.25 0 0 Z " fill="#18233B" transform="translate(894,638)"/>
<path d="M0 0 C0.66 0.33 1.32 0.66 2 1 C1.34 2.32 0.68 3.64 0 5 C-0.66 5 -1.32 5 -2 5 C-2 5.66 -2 6.32 -2 7 C-2.66 7 -3.32 7 -4 7 C-2.92598892 4.08482708 -2.22189824 2.22189824 0 0 Z " fill="#252E49" transform="translate(770,521)"/>
<path d="M0 0 C5.75 1.75 5.75 1.75 8 4 C6.25 4.6875 6.25 4.6875 4 5 C1.75 3.6875 1.75 3.6875 0 2 C0 1.34 0 0.68 0 0 Z " fill="#1E2D4A" transform="translate(376,472)"/>
<path d="M0 0 C-0.75 1.9375 -0.75 1.9375 -2 4 C-4.125 4.75 -4.125 4.75 -6 5 C-6.33 4.01 -6.66 3.02 -7 2 C-4.35261084 0.5393715 -3.10551666 0 0 0 Z " fill="#283550" transform="translate(387,282)"/>
<path d="M0 0 C0.33 0.99 0.66 1.98 1 3 C0.00390625 4.82421875 0.00390625 4.82421875 -1.4375 6.6875 C-1.91058594 7.31011719 -2.38367188 7.93273437 -2.87109375 8.57421875 C-3.24363281 9.04472656 -3.61617187 9.51523437 -4 10 C-4.66 9.67 -5.32 9.34 -6 9 C-4.02 6.03 -2.04 3.06 0 0 Z " fill="#FDF3D8" transform="translate(915,780)"/>
<path d="M0 0 C-0.99 1.485 -0.99 1.485 -2 3 C-3.9453125 3.29296875 -3.9453125 3.29296875 -6.125 3.1875 C-7.40375 3.125625 -8.6825 3.06375 -10 3 C-6.1865669 0.45771127 -4.5252563 -0.11908569 0 0 Z " fill="#FBC42A" transform="translate(650,625)"/>
<path d="M0 0 C0 0.99 0 1.98 0 3 C-2.375 3.625 -2.375 3.625 -5 4 C-5.66 3.34 -6.32 2.68 -7 2 C-4.35261084 0.5393715 -3.10551666 0 0 0 Z " fill="#2B3650" transform="translate(360,294)"/>
<path d="M0 0 C0.99 0.33 1.98 0.66 3 1 C2.34 1 1.68 1 1 1 C0.7525 1.804375 0.505 2.60875 0.25 3.4375 C-0.1625 4.283125 -0.575 5.12875 -1 6 C-2.32 6.33 -3.64 6.66 -5 7 C-3.35 4.69 -1.7 2.38 0 0 Z " fill="#E9E8E9" transform="translate(569,836)"/>
<path d="M0 0 C0.66 0 1.32 0 2 0 C2.25 2.3125 2.25 2.3125 2 5 C0 6.8125 0 6.8125 -2 8 C-1.34 5.36 -0.68 2.72 0 0 Z " fill="#FDF5E1" transform="translate(532,563)"/>
<path d="M0 0 C0.99 0 1.98 0 3 0 C4.125 4.75 4.125 4.75 3 7 C2.34 7 1.68 7 1 7 C0.67 4.69 0.34 2.38 0 0 Z " fill="#FBBD1E" transform="translate(272,556)"/>
<path d="M0 0 C3.25696479 0.41755959 4.63443291 0.63443291 7 3 C5.25 3.6875 5.25 3.6875 3 4 C0.75 2.5625 0.75 2.5625 -1 1 C-0.67 0.67 -0.34 0.34 0 0 Z " fill="#1C2A46" transform="translate(416,491)"/>
<path d="M0 0 C0.99 0.33 1.98 0.66 3 1 C1.6875 3 1.6875 3 0 5 C-0.99 5 -1.98 5 -3 5 C-1.125 1.125 -1.125 1.125 0 0 Z " fill="#DEDEE1" transform="translate(941,470)"/>
<path d="M0 0 C0 0.66 0 1.32 0 2 C-4.43076923 4.09230769 -4.43076923 4.09230769 -7.3125 3.625 C-7.869375 3.41875 -8.42625 3.2125 -9 3 C-3.375 0 -3.375 0 0 0 Z " fill="#363C54" transform="translate(351,298)"/>
<path d="M0 0 C0 0.66 0 1.32 0 2 C-4.43076923 4.09230769 -4.43076923 4.09230769 -7.3125 3.625 C-7.869375 3.41875 -8.42625 3.2125 -9 3 C-3.375 0 -3.375 0 0 0 Z " fill="#32394F" transform="translate(369,290)"/>
</svg>
