<?xml version="1.0" encoding="UTF-8"?>
<svg version="1.1" xmlns="http://www.w3.org/2000/svg" width="500" height="500">
<path d="M0 0 C1.33535043 -0.00186979 2.67070031 -0.00417116 4.00604934 -0.00686532 C7.66504396 -0.01296893 11.32401568 -0.01285143 14.98301423 -0.01167095 C18.93336152 -0.01146658 22.88370153 -0.01698915 26.83404541 -0.02172852 C34.56950561 -0.03002765 42.30495819 -0.03278302 50.04042248 -0.03334089 C56.32926354 -0.03381639 62.6181021 -0.0358728 68.90694237 -0.03904152 C86.74428918 -0.04784595 104.58162997 -0.05246121 122.41897897 -0.05171105 C123.38018048 -0.05167109 124.34138199 -0.05163113 125.33171082 -0.05158997 C126.29408839 -0.05154909 127.25646596 -0.0515082 128.24800649 -0.05146609 C143.84454452 -0.05105964 159.44105841 -0.06062943 175.03758947 -0.07472833 C191.0591769 -0.08909699 207.08075256 -0.09599825 223.1023466 -0.09513456 C232.09437275 -0.09480276 241.08637359 -0.09754209 250.07839394 -0.10831261 C257.73420974 -0.11742402 265.38998875 -0.11958757 273.04580764 -0.11280318 C276.9498096 -0.10954127 280.85374099 -0.10946941 284.75773621 -0.11815643 C288.33612442 -0.12603686 291.91438628 -0.12457434 295.49277147 -0.1158723 C297.39083446 -0.11361877 299.28890143 -0.12115383 301.18694907 -0.12911195 C308.01191705 -0.1016812 314.29901803 0.48460638 320.92521667 2.13371277 C322.0002948 2.39410339 323.07537292 2.65449402 324.18302917 2.92277527 C337.53413964 6.81533336 351.05491387 13.36335482 361.92521667 22.13371277 C361.92521667 22.79371277 361.92521667 23.45371277 361.92521667 24.13371277 C362.58521667 24.13371277 363.24521667 24.13371277 363.92521667 24.13371277 C363.92521667 24.79371277 363.92521667 25.45371277 363.92521667 26.13371277 C364.76052917 26.47402527 364.76052917 26.47402527 365.61271667 26.82121277 C368.58681255 28.50921313 370.64530532 30.60047794 372.92521667 33.13371277 C372.92521667 33.79371277 372.92521667 34.45371277 372.92521667 35.13371277 C373.58521667 35.13371277 374.24521667 35.13371277 374.92521667 35.13371277 C374.92521667 35.79371277 374.92521667 36.45371277 374.92521667 37.13371277 C375.58521667 37.13371277 376.24521667 37.13371277 376.92521667 37.13371277 C391.95575062 55.06432899 399.08785357 77.14182958 399.05892944 100.23973083 C399.06079923 101.57849337 399.0631006 102.91725536 399.06579477 104.25601649 C399.07189854 107.92448206 399.07178085 111.59292478 399.07060039 115.26139426 C399.07039602 119.22198572 399.0759186 123.18256991 399.08065796 127.14315796 C399.08895737 134.89900662 399.09171248 142.65484768 399.09227034 150.41070041 C399.09274585 156.71669535 399.09480238 163.02268779 399.09797096 169.32868195 C399.10677575 187.21630062 399.11139064 205.10391329 399.11064049 222.99153414 C399.11058055 224.43742282 399.11058055 224.43742282 399.11051941 225.91252136 C399.11047853 226.87762724 399.11043765 227.84273311 399.11039553 228.83708462 C399.10998915 244.47497949 399.11955705 260.11285027 399.13365778 275.75073817 C399.14802965 291.81640091 399.15492751 307.88205191 399.154064 323.94772124 C399.1537323 332.96381253 399.15646748 341.97987856 399.16724205 350.99596405 C399.17635774 358.67297796 399.17851354 366.34995516 399.17173263 374.02697214 C399.16847277 377.94122427 399.16839139 381.85540603 399.17708588 385.76965141 C399.18497551 389.35857752 399.18349446 392.94737774 399.17480174 396.53630087 C399.17255205 398.43760128 399.18007605 400.33890568 399.18804139 402.24019074 C399.10180786 423.79837064 391.26188574 446.66591722 376.92521667 463.13371277 C376.26521667 463.13371277 375.60521667 463.13371277 374.92521667 463.13371277 C374.92521667 463.79371277 374.92521667 464.45371277 374.92521667 465.13371277 C374.26521667 465.13371277 373.60521667 465.13371277 372.92521667 465.13371277 C372.58490417 465.96902527 372.58490417 465.96902527 372.23771667 466.82121277 C370.54971631 469.79530864 368.45845151 471.85380142 365.92521667 474.13371277 C365.26521667 474.13371277 364.60521667 474.13371277 363.92521667 474.13371277 C363.92521667 474.79371277 363.92521667 475.45371277 363.92521667 476.13371277 C363.26521667 476.13371277 362.60521667 476.13371277 361.92521667 476.13371277 C361.92521667 476.79371277 361.92521667 477.45371277 361.92521667 478.13371277 C359.95525009 479.61734385 358.00777805 480.94852688 355.92521667 482.25871277 C355.2987323 482.65469666 354.67224792 483.05068054 354.02677917 483.45866394 C336.05773548 494.60275589 319.16319013 500.28914433 297.88407898 500.27415466 C295.9063763 500.27861135 295.9063763 500.27861135 293.88872004 500.28315806 C290.23938085 500.29119798 286.59006136 500.29301595 282.94071436 500.29375553 C279.00049472 500.29561138 275.06028518 500.30316144 271.12007141 500.30989075 C262.50818457 500.32345389 253.8963024 500.32949583 245.28440666 500.33390141 C239.90233131 500.33666763 234.52025774 500.34090571 229.13818359 500.34540558 C214.22359581 500.35759633 199.30900946 500.36789556 184.39441681 500.37128067 C183.44043004 500.37150024 182.48644327 500.3717198 181.50354782 500.37194602 C180.54733326 500.3721643 179.5911187 500.37238258 178.60592794 500.37260747 C176.66841221 500.37305093 174.73089647 500.37349749 172.79338074 500.37394714 C171.83231472 500.37416857 170.8712487 500.37439 169.88105947 500.37461814 C154.32022059 500.37856329 138.75942863 500.39600954 123.19860786 500.41930667 C107.20524645 500.44305716 91.21190854 500.45548423 75.21852922 500.45664859 C66.24589005 500.45756335 57.27331198 500.46326525 48.3006897 500.4814682 C40.65781489 500.49691927 33.01502007 500.50196031 25.3721326 500.4937301 C21.47760292 500.48984105 17.58323408 500.49066702 13.68872452 500.50478745 C10.11310855 500.51763221 6.53777252 500.5162376 2.96215636 500.50419673 C1.07772313 500.50134973 -0.80671542 500.51309492 -2.69110918 500.52561879 C-24.94700924 500.39854649 -46.75136916 492.15742899 -64.07478333 478.13371277 C-64.07478333 477.47371277 -64.07478333 476.81371277 -64.07478333 476.13371277 C-64.73478333 476.13371277 -65.39478333 476.13371277 -66.07478333 476.13371277 C-66.07478333 475.47371277 -66.07478333 474.81371277 -66.07478333 474.13371277 C-66.63165833 473.90683777 -67.18853333 473.67996277 -67.76228333 473.44621277 C-70.7363792 471.75821241 -72.79487198 469.6669476 -75.07478333 467.13371277 C-75.07478333 466.47371277 -75.07478333 465.81371277 -75.07478333 465.13371277 C-75.73478333 465.13371277 -76.39478333 465.13371277 -77.07478333 465.13371277 C-77.07478333 464.47371277 -77.07478333 463.81371277 -77.07478333 463.13371277 C-77.73478333 463.13371277 -78.39478333 463.13371277 -79.07478333 463.13371277 C-94.10747991 445.20051664 -101.23740797 423.1218156 -101.20849609 400.02096558 C-101.21036587 398.68149035 -101.21266724 397.34201566 -101.21536142 396.00254184 C-101.22146518 392.33214567 -101.2213475 388.66177232 -101.22016704 384.99137223 C-101.21996268 381.02875489 -101.22548521 377.06614482 -101.23022461 373.10353088 C-101.23852383 365.34400722 -101.24127912 357.58449115 -101.24183699 349.82496341 C-101.24231248 343.5165762 -101.24436887 337.20819149 -101.24753761 330.89980507 C-101.25634207 313.00712074 -101.2609573 295.1144424 -101.26020714 277.22175588 C-101.26016718 276.25756738 -101.26012723 275.29337887 -101.26008606 274.29997253 C-101.26004518 273.33460435 -101.2600043 272.36923616 -101.25996218 271.3746144 C-101.25955573 255.72957744 -101.26912554 240.08456456 -101.28322443 224.43953457 C-101.29759298 208.36822659 -101.30449435 192.29693036 -101.30363065 176.2256158 C-101.30329885 167.205644 -101.30603833 158.18569744 -101.3168087 149.16573143 C-101.32591998 141.48612709 -101.32808377 133.80655942 -101.32129928 126.12695201 C-101.3180373 122.21079854 -101.31796575 118.29471541 -101.32665253 114.37856865 C-101.33453266 110.78907803 -101.33307073 107.19971337 -101.32436839 103.61022577 C-101.32211474 101.7061979 -101.32965016 99.80216607 -101.33760804 97.89815348 C-101.3102245 91.06418902 -100.72711085 84.76849463 -99.07478333 78.13371277 C-98.8143927 77.05863464 -98.55400208 75.98355652 -98.28572083 74.87590027 C-94.39316273 61.5247898 -87.84514127 48.00401558 -79.07478333 37.13371277 C-78.41478333 37.13371277 -77.75478333 37.13371277 -77.07478333 37.13371277 C-77.07478333 36.47371277 -77.07478333 35.81371277 -77.07478333 35.13371277 C-76.41478333 35.13371277 -75.75478333 35.13371277 -75.07478333 35.13371277 C-74.84790833 34.57683777 -74.62103333 34.01996277 -74.38728333 33.44621277 C-72.69928296 30.47211689 -70.60801816 28.41362412 -68.07478333 26.13371277 C-67.41478333 26.13371277 -66.75478333 26.13371277 -66.07478333 26.13371277 C-66.07478333 25.47371277 -66.07478333 24.81371277 -66.07478333 24.13371277 C-65.41478333 24.13371277 -64.75478333 24.13371277 -64.07478333 24.13371277 C-64.07478333 23.47371277 -64.07478333 22.81371277 -64.07478333 22.13371277 C-62.10481675 20.65008169 -60.1573447 19.31889866 -58.07478333 18.00871277 C-57.44829895 17.61272888 -56.82181458 17.216745 -56.17634583 16.8087616 C-38.19422264 5.65655798 -21.29474284 -0.02673551 0 0 Z " fill="#060E21" transform="translate(101.07478332519531,-0.1337127685546875)"/>
<path d="M0 0 C1.97664383 0.92209416 3.95571108 1.83901638 5.9375 2.75 C6.98292969 3.23597656 8.02835938 3.72195312 9.10546875 4.22265625 C19.77617993 9.12869713 30.5802668 13.75237475 41.33886719 18.46142578 C52.41357684 23.30926637 63.47265349 28.16523571 74.40625 33.32421875 C82.93804507 37.30263189 91.56132509 41.09250882 100.20703125 44.81640625 C124.1393777 55.1393777 124.1393777 55.1393777 127 58 C127.04063832 59.66617115 127.042721 61.33388095 127 63 C121.28801805 66.41931058 115.39171311 69.17219775 109.3125 71.875 C103.58514477 74.42675208 97.90270156 77.02144311 92.30859375 79.85546875 C85.58080559 83.25062832 78.73994204 86.37274729 71.87451172 89.47680664 C69.76542156 90.43052645 67.65798222 91.38781757 65.55078125 92.34570312 C57.88351218 95.82496949 50.19742285 99.25481231 42.46307373 102.58274841 C37.0124637 104.94363092 31.75532469 107.6040298 26.46484375 110.30078125 C21.74181298 112.61703648 16.92184205 114.63910316 12.05859375 116.640625 C9.20537915 117.90872038 6.66473362 119.38368616 4 121 C2.49510839 121.66246529 0.97328951 122.28770994 -0.5625 122.875 C-3.4246309 123.97549146 -6.23853293 125.10744727 -9.03515625 126.3671875 C-10.05480469 126.82351563 -11.07445312 127.27984375 -12.125 127.75 C-13.05570313 128.17796875 -13.98640625 128.6059375 -14.9453125 129.046875 C-20.96224178 130.92428004 -25.65913689 130.60520577 -31.27294922 127.81665039 C-31.90475098 127.48528076 -32.53655273 127.15391113 -33.1875 126.8125 C-34.67143984 126.07462089 -36.15727415 125.34054485 -37.64453125 124.609375 C-38.47807129 124.19751953 -39.31161133 123.78566406 -40.17041016 123.36132812 C-45.22083699 120.93154555 -50.35213635 118.67968319 -55.47436523 116.40643311 C-65.18916908 112.09279814 -74.85769751 107.70012662 -84.44384766 103.10620117 C-90.41913536 100.25066627 -96.45394767 97.54690014 -102.5144043 94.87768555 C-107.2044239 92.80887782 -111.86286639 90.68463003 -116.5 88.5 C-124.94028646 84.53187401 -133.46678129 80.76321787 -142 77 C-141.98057686 81.76971335 -141.92885621 86.5375823 -141.84741211 91.30664062 C-141.82424116 92.92828313 -141.80983846 94.55007593 -141.80444336 96.171875 C-141.79514627 98.50615996 -141.754147 100.83808441 -141.70703125 103.171875 C-141.7109639 103.89493835 -141.71489655 104.61800171 -141.71894836 105.36297607 C-141.60889112 109.17517183 -141.34825488 110.66727461 -138.54174805 113.34863281 C-137.70297119 113.89358398 -136.86419434 114.43853516 -136 115 C-133.73611292 118.70454249 -133.9003403 121.7713758 -134.3203125 125.9375 C-135 128 -135 128 -137.125 130.26953125 C-139.37321094 132.94912643 -139.37321094 132.94912643 -138.8046875 136.63671875 C-138.51885007 137.99227605 -138.20767578 139.34267085 -137.875 140.6875 C-137.71902344 141.40301025 -137.56304687 142.11852051 -137.40234375 142.85571289 C-137.09144898 144.27641849 -136.7710622 145.69508588 -136.44042969 147.11132812 C-135.91188571 149.37785595 -135.44883485 151.65395426 -135 153.9375 C-134.84789062 154.69417969 -134.69578125 155.45085937 -134.5390625 156.23046875 C-133.79253521 160.06588795 -133.07519741 163.90586712 -132.375 167.75 C-132.23964844 168.47179443 -132.10429687 169.19358887 -131.96484375 169.93725586 C-131.23319356 174.01083146 -130.85688934 177.8628008 -131 182 C-132.39006515 182.53603819 -133.78742649 183.05317473 -135.1875 183.5625 C-135.96480469 183.85253906 -136.74210937 184.14257812 -137.54296875 184.44140625 C-140 185 -140 185 -145 184 C-145.66 179.71 -146.32 175.42 -147 171 C-147.66 175.62 -148.32 180.24 -149 185 C-158.625 184.125 -158.625 184.125 -162 183 C-162.24407626 176.00127684 -161.60816872 169.59684286 -160.1875 162.75 C-160.00662842 161.84121094 -159.82575684 160.93242187 -159.6394043 159.99609375 C-159.10472912 157.32814243 -158.55585732 154.66361097 -158 152 C-157.84563477 151.25943359 -157.69126953 150.51886719 -157.53222656 149.75585938 C-156.9061457 146.77168254 -156.26661557 143.7908285 -155.61328125 140.8125 C-155.30970703 139.4203125 -155.30970703 139.4203125 -155 138 C-154.76925781 137.09636719 -154.53851563 136.19273437 -154.30078125 135.26171875 C-154.20152344 134.51535156 -154.10226563 133.76898438 -154 133 C-155.81260132 130.77068176 -155.81260132 130.77068176 -158 129 C-159.7437387 125.5125226 -159.57992679 121.80457466 -159 118 C-157.60964864 115.35350107 -156.27045724 114.05925192 -154 112 C-153.01 112 -152.02 112 -151 112 C-151.33 98.8 -151.66 85.6 -152 72 C-155.3 70.68 -158.6 69.36 -162 68 C-167.98131289 65.45999042 -167.98131289 65.45999042 -170 64 C-171 61.25 -171 61.25 -171 59 C-167.67600012 56.25545555 -164.07326752 54.51648293 -160.1640625 52.77734375 C-159.49658997 52.47562759 -158.82911743 52.17391144 -158.14141846 51.86305237 C-155.97130023 50.88331123 -153.79817982 49.91042863 -151.625 48.9375 C-150.1236338 48.26091989 -148.62249572 47.58383337 -147.12158203 46.90625 C-144.13223314 45.55739006 -141.14183129 44.21091362 -138.15039062 42.86669922 C-132.71882752 40.4252876 -127.2959689 37.96483228 -121.875 35.5 C-120.99126709 35.09894043 -120.10753418 34.69788086 -119.19702148 34.28466797 C-114.34335112 32.07883284 -109.50936072 29.8369626 -104.6875 27.5625 C-96.87106356 23.89338301 -88.95949157 20.44590865 -81.05078125 16.98120117 C-74.76878225 14.22664728 -68.51618812 11.42898837 -62.30078125 8.52734375 C-56.96814388 6.05981569 -51.6079911 3.65275334 -46.23901367 1.26538086 C-42.68224222 -0.31944023 -39.1641479 -1.9161798 -35.6953125 -3.6875 C-22.37877595 -10.48086357 -12.44613387 -6.10041312 0 0 Z " fill="#FBBA04" transform="translate(272,149)"/>
<path d="M0 0 C0.1273395 6.2619848 0.21457581 12.52363268 0.2746582 18.78662109 C0.29971889 20.91467771 0.33377691 23.04264897 0.37719727 25.17041016 C0.43822089 28.23882163 0.46629474 31.30608995 0.48828125 34.375 C0.51408768 35.31802979 0.5398941 36.26105957 0.56648254 37.23266602 C0.56968571 44.86900399 -1.84218782 49.40756421 -6.81640625 55.06640625 C-16.41133667 63.28756587 -27.6028041 68.48323558 -39.18994141 73.25390625 C-40.71970226 73.88446319 -42.24166171 74.53389697 -43.76171875 75.1875 C-76.68391336 88.41839768 -114.46902705 84.18081572 -146.5625 70.98046875 C-158.68773458 65.73762275 -173.89603316 57.78802952 -179 45 C-179.39732041 41.59061672 -179.3499599 38.21753864 -179.29296875 34.7890625 C-179.28872391 33.82092621 -179.28447906 32.85278992 -179.28010559 31.85531616 C-179.26337956 28.77825527 -179.22573831 25.70186128 -179.1875 22.625 C-179.17244532 20.53256158 -179.15875829 18.44011283 -179.14648438 16.34765625 C-179.11349588 11.23151582 -179.06175528 6.11587079 -179 1 C-174.81176842 1.64896348 -171.35129389 3.05007731 -167.50390625 4.80859375 C-166.88233139 5.09089844 -166.26075653 5.37320312 -165.62034607 5.6640625 C-163.59877232 6.58360579 -161.58064992 7.51046971 -159.5625 8.4375 C-158.16102777 9.07673686 -156.75933318 9.71548643 -155.35742188 10.35375977 C-152.54972067 11.63292087 -149.74330662 12.91484049 -146.93798828 14.19921875 C-143.49221504 15.77623739 -140.04216317 17.34360374 -136.58984375 18.90625 C-129.29687773 22.20785835 -122.00674472 25.51230225 -114.7644043 28.92382812 C-111.84878858 30.29517342 -108.92384307 31.64630532 -106 33 C-104.40091797 33.76183594 -104.40091797 33.76183594 -102.76953125 34.5390625 C-94.67653259 38.21117089 -88.87505024 39.7779595 -80.34765625 36.66796875 C-76.85763736 35.21425932 -73.4421757 33.61856856 -70.03613281 31.97900391 C-68.13388312 31.06437306 -66.22285268 30.17363254 -64.3046875 29.29296875 C-59.08712942 26.88703214 -53.89459766 24.43150169 -48.71484375 21.9453125 C-38.41405181 17.0132431 -28.03056452 12.32118785 -17.53955078 7.80566406 C-13.20945992 5.92746899 -8.96389617 4.06867043 -4.890625 1.67578125 C-2 0 -2 0 0 0 Z " fill="#FBBA04" transform="translate(340,252)"/>
<path d="M0 0 C-0.33 1.65 -0.66 3.3 -1 5 C1.31 5.33 3.62 5.66 6 6 C1.82567865 9.72618347 -2.48801601 11.75640228 -7.5625 13.9375 C-9.36279019 14.72862575 -11.16222105 15.52170893 -12.9609375 16.31640625 C-13.9312793 16.74453613 -14.90162109 17.17266602 -15.90136719 17.61376953 C-21.52888265 20.13134224 -27.10385325 22.76195955 -32.6875 25.375 C-43.06706372 30.22021875 -53.50088872 34.92056434 -64.0065918 39.48583984 C-64.97121338 39.90559082 -65.93583496 40.3253418 -66.9296875 40.7578125 C-67.82091309 41.14549805 -68.71213867 41.53318359 -69.63037109 41.93261719 C-71.58663337 42.81380189 -73.5031693 43.78261338 -75.40625 44.7734375 C-80.50144856 47.18291393 -85.4752031 46.79674516 -90.78515625 45.12109375 C-93.9113685 43.84620504 -96.95217389 42.45239367 -100 41 C-101.75755199 40.18363989 -103.51510535 39.36728271 -105.27270508 38.55102539 C-106.51990427 37.96959089 -107.76581614 37.38538792 -109.01049805 36.79858398 C-113.97530263 34.45870448 -118.97872781 32.21578512 -124 30 C-129.38445274 27.62275817 -134.74006455 25.2017057 -140.0625 22.6875 C-150.94100344 17.56960451 -161.98415774 12.81297511 -173 8 C-172.93094238 14.13849707 -172.84288681 20.27632474 -172.73754883 26.41430664 C-172.70438339 28.50049387 -172.67632557 30.58676902 -172.65356445 32.6730957 C-172.61986431 35.67957879 -172.56754032 38.68526225 -172.51171875 41.69140625 C-172.50532883 42.61772354 -172.4989389 43.54404083 -172.49235535 44.49842834 C-172.36703887 50.07212646 -171.55550381 54.02881623 -169 59 C-172 58 -172 58 -173.17089844 56.09033203 C-174.38256873 51.57404152 -174.28503989 47.21112141 -174.265625 42.5546875 C-174.26753845 41.54785919 -174.2694519 40.54103088 -174.27142334 39.50369263 C-174.27278168 37.38055165 -174.26910982 35.25740227 -174.26074219 33.13427734 C-174.25001547 29.87969413 -174.26066101 26.62566009 -174.2734375 23.37109375 C-174.27211628 21.30729045 -174.26955467 19.24348749 -174.265625 17.1796875 C-174.27169769 15.71715042 -174.27169769 15.71715042 -174.27789307 14.22506714 C-174.27158875 13.3204776 -174.26528442 12.41588806 -174.25878906 11.48388672 C-174.25719788 10.68844452 -174.25560669 9.89300232 -174.25396729 9.07345581 C-174 7 -174 7 -172 4 C-170.68 4 -169.36 4 -168 4 C-168 4.99 -168 5.98 -168 7 C-166.68 7.33 -165.36 7.66 -164 8 C-164 8.66 -164 9.32 -164 10 C-162.35 9.67 -160.7 9.34 -159 9 C-159 9.99 -159 10.98 -159 12 C-158.34 12 -157.68 12 -157 12 C-155.52952664 8.08936776 -155.52952664 8.08936776 -155 4 C-155.639375 3.87625 -156.27875 3.7525 -156.9375 3.625 C-157.618125 3.41875 -158.29875 3.2125 -159 3 C-159.33 2.34 -159.66 1.68 -160 1 C-152.47499518 3.25995792 -145.49454236 6.439996 -138.41415405 9.80950928 C-135.06754958 11.40182152 -131.71328831 12.97784288 -128.359375 14.5546875 C-127.70861496 14.86105133 -127.05785492 15.16741516 -126.38737488 15.48306274 C-120.50910156 18.24442876 -114.57884454 20.85535364 -108.60546875 23.40234375 C-105.87940601 24.61031738 -103.21807406 25.86431829 -100.55078125 27.19140625 C-99.79192627 27.56475098 -99.03307129 27.9380957 -98.2512207 28.32275391 C-96.80414508 29.03930822 -95.36321095 29.76847706 -93.93041992 30.51318359 C-88.14093646 33.36856279 -83.42885875 34.03876954 -77.0859375 32.1171875 C-76.19132812 31.70726562 -75.29671875 31.29734375 -74.375 30.875 C-73.35148437 30.41738281 -72.32796875 29.95976562 -71.2734375 29.48828125 C-70.19320312 28.99714844 -69.11296875 28.50601562 -68 28 C-65.66779192 27.01815619 -63.33443182 26.03904488 -61 25.0625 C-55.61655238 22.75362531 -50.39995223 20.222635 -45.18359375 17.5625 C-40.9003502 15.46029458 -36.53461667 13.57618145 -32.15527344 11.68481445 C-23.92384149 8.12120672 -15.67650384 4.47877187 -7.75 0.27734375 C-4.60333397 -1.18424686 -3.24569775 -1.05007868 0 0 Z " fill="#0B101A" transform="translate(334,245)"/>
<path d="M0 0 C6.7186905 1.99613268 12.80734808 4.7291421 19 8 C19 8.99 19 9.98 19 11 C19.78375 11.12375 20.5675 11.2475 21.375 11.375 C24 12 24 12 26 14 C25.01 14.33 24.02 14.66 23 15 C25.64 15 28.28 15 31 15 C31 15.99 31 16.98 31 18 C29.63776389 18.73258031 28.25934628 19.43511126 26.875 20.125 C26.10929687 20.51945312 25.34359375 20.91390625 24.5546875 21.3203125 C19.31285286 22.71492906 13.81243313 19.10118663 9.0703125 16.9609375 C8.43511688 16.67521881 7.79992126 16.38950012 7.14547729 16.09512329 C5.13741538 15.19112893 3.13119146 14.28313664 1.125 13.375 C-0.24467169 12.7575463 -1.61446225 12.14035619 -2.984375 11.5234375 C-6.32429612 10.01866963 -9.66258221 8.51031328 -13 7 C-12.93094238 13.13849707 -12.84288681 19.27632474 -12.73754883 25.41430664 C-12.70438339 27.50049387 -12.67632557 29.58676902 -12.65356445 31.6730957 C-12.61986431 34.67957879 -12.56754032 37.68526225 -12.51171875 40.69140625 C-12.50532883 41.61772354 -12.4989389 42.54404083 -12.49235535 43.49842834 C-12.36703887 49.07212646 -11.55550381 53.02881623 -9 58 C-12 57 -12 57 -13.17089844 55.09033203 C-14.38256873 50.57404152 -14.28503989 46.21112141 -14.265625 41.5546875 C-14.26753845 40.54785919 -14.2694519 39.54103088 -14.27142334 38.50369263 C-14.27278168 36.38055165 -14.26910982 34.25740227 -14.26074219 32.13427734 C-14.25001547 28.87969413 -14.26066101 25.62566009 -14.2734375 22.37109375 C-14.27211628 20.30729045 -14.26955467 18.24348749 -14.265625 16.1796875 C-14.27169769 14.71715042 -14.27169769 14.71715042 -14.27789307 13.22506714 C-14.27158875 12.3204776 -14.26528442 11.41588806 -14.25878906 10.48388672 C-14.25719788 9.68844452 -14.25560669 8.89300232 -14.25396729 8.07345581 C-14 6 -14 6 -12 3 C-10.68 3 -9.36 3 -8 3 C-8 3.99 -8 4.98 -8 6 C-6.68 6.33 -5.36 6.66 -4 7 C-4 7.66 -4 8.32 -4 9 C-2.35 8.67 -0.7 8.34 1 8 C1 8.99 1 9.98 1 11 C1.66 11 2.32 11 3 11 C4.47047336 7.08936776 4.47047336 7.08936776 5 3 C4.360625 2.87625 3.72125 2.7525 3.0625 2.625 C2.0415625 2.315625 2.0415625 2.315625 1 2 C0.67 1.34 0.34 0.68 0 0 Z " fill="#0D111A" transform="translate(174,246)"/>
<path d="M0 0 C-0.33 1.65 -0.66 3.3 -1 5 C1.31 5.33 3.62 5.66 6 6 C1.56677932 10.13767263 -3.39879629 11.95528874 -9 14 C-9.33 12.02 -9.66 10.04 -10 8 C-12.39719432 7.32041397 -12.39719432 7.32041397 -15 7 C-15.66 7.66 -16.32 8.32 -17 9 C-18.8046875 9.66796875 -18.8046875 9.66796875 -20.875 10.1875 C-21.89207031 10.45626953 -21.89207031 10.45626953 -22.9296875 10.73046875 C-25.23731982 11.03089635 -26.77743795 10.61409082 -29 10 C-25.11450472 8.12358137 -21.21517878 6.27787868 -17.3125 4.4375 C-16.20970703 3.90447266 -15.10691406 3.37144531 -13.97070312 2.82226562 C-12.90400391 2.32275391 -11.83730469 1.82324219 -10.73828125 1.30859375 C-9.75899658 0.84251709 -8.77971191 0.37644043 -7.77075195 -0.10375977 C-4.69281913 -1.09936215 -3.06032019 -0.92078269 0 0 Z " fill="#0D131A" transform="translate(334,245)"/>
<path d="M0 0 C0.10175694 6.28037616 0.17161462 12.56053824 0.21972656 18.84155273 C0.23979182 20.97639918 0.26705058 23.111191 0.30175781 25.24584961 C0.35049943 28.32158925 0.37302006 31.39659969 0.390625 34.47265625 C0.41127014 35.42084732 0.43191528 36.36903839 0.45318604 37.34596252 C0.45523202 43.4435037 -0.50618318 46.9738604 -4 52 C-4.495 50.515 -4.495 50.515 -5 49 C-4.505 48.505 -4.505 48.505 -4 48 C-3.82725501 45.15256773 -3.71591682 42.3270929 -3.6484375 39.4765625 C-3.62528473 38.61944672 -3.60213196 37.76233093 -3.57827759 36.87924194 C-3.53056189 35.06180909 -3.4853373 33.24430943 -3.44238281 31.42675781 C-3.37544792 28.64362422 -3.29763922 25.86094237 -3.21875 23.078125 C-3.17382007 21.31512084 -3.12952824 19.55210028 -3.0859375 17.7890625 C-3.06203949 16.95460602 -3.03814148 16.12014954 -3.01351929 15.26040649 C-2.94050274 11.89558587 -2.92715122 9.21854633 -4 6 C-4.66 6 -5.32 6 -6 6 C-6 6.66 -6 7.32 -6 8 C-7.051875 7.979375 -8.10375 7.95875 -9.1875 7.9375 C-12.32704904 7.98896802 -14.96883396 8.26517187 -18 9 C-14.82505993 6.44624385 -11.51896339 4.62552847 -7.875 2.8125 C-6.82054687 2.28269531 -5.76609375 1.75289062 -4.6796875 1.20703125 C-2 0 -2 0 0 0 Z " fill="#F0B617" transform="translate(340,252)"/>
<path d="M0 0 C-1.33333333 2.66666667 -2.66666667 5.33333333 -4 8 C-5.32 8 -6.64 8 -8 8 C-8.33 9.65 -8.66 11.3 -9 13 C-10.98 13 -12.96 13 -15 13 C-15 13.66 -15 14.32 -15 15 C-17.31 15 -19.62 15 -22 15 C-22.66 13.02 -23.32 11.04 -24 9 C-23.34 9 -22.68 9 -22 9 C-22 8.34 -22 7.68 -22 7 C-19.03 7.495 -19.03 7.495 -16 8 C-16 7.34 -16 6.68 -16 6 C-11.02507251 2.03734064 -6.37093045 0 0 0 Z " fill="#050E21" transform="translate(290,266)"/>
<path d="M0 0 C1.65 0 3.3 0 5 0 C5 0.66 5 1.32 5 2 C5.66 2 6.32 2 7 2 C7 2.66 7 3.32 7 4 C8.051875 3.87625 8.051875 3.87625 9.125 3.75 C12.99676908 4.08667557 15.01944414 5.57396616 18 8 C18 11 18 11 17 13 C17.66 13 18.32 13 19 13 C19 13.66 19 14.32 19 15 C17.68 15.33 16.36 15.66 15 16 C15 15.34 15 14.68 15 14 C12.92189383 13.46035512 10.85569655 12.97248981 8.74609375 12.5703125 C7.98425781 12.42335938 7.22242188 12.27640625 6.4375 12.125 C5.67308594 11.98320312 4.90867188 11.84140625 4.12109375 11.6953125 C1.6265941 10.87759438 0.52148361 10.13896884 -1 8 C-1.10118893 5.21464152 -0.49854208 2.76464243 0 0 Z " fill="#050E20" transform="translate(220,269)"/>
<path d="M0 0 C0 0.66 0 1.32 0 2 C-0.66 2 -1.32 2 -2 2 C-1.01 3.32 -0.02 4.64 1 6 C0.67 6.66 0.34 7.32 0 8 C2.31 8 4.62 8 7 8 C7 7.34 7 6.68 7 6 C8.65 6 10.3 6 12 6 C7.772534 9.33132941 3.24048716 11.44106373 -1.625 13.6875 C-2.47707031 14.10322266 -3.32914062 14.51894531 -4.20703125 14.94726562 C-10.12080846 17.67153969 -15.46966664 19.07080587 -22 18 C-22.99 17.34 -23.98 16.68 -25 16 C-24.03578125 15.93941406 -23.0715625 15.87882812 -22.078125 15.81640625 C-20.81484375 15.73261719 -19.5515625 15.64882813 -18.25 15.5625 C-16.99703125 15.48128906 -15.7440625 15.40007812 -14.453125 15.31640625 C-11.81682447 15.07484478 -9.51962706 14.75716066 -7 14 C-7 13.34 -7 12.68 -7 12 C-5.68 11.67 -4.36 11.34 -3 11 C-3 10.01 -3 9.02 -3 8 C-6.63 7.34 -10.26 6.68 -14 6 C-11.47732009 4.31821339 -9.18908177 3.09893258 -6.4375 1.875 C-5.65246094 1.52179688 -4.86742187 1.16859375 -4.05859375 0.8046875 C-2 0 -2 0 0 0 Z " fill="#221E0D" transform="translate(268,273)"/>
<path d="M0 0 C1.32 0 2.64 0 4 0 C4 0.99 4 1.98 4 3 C5.32 3.33 6.64 3.66 8 4 C8 4.66 8 5.32 8 6 C9.65 5.67 11.3 5.34 13 5 C13 5.99 13 6.98 13 8 C14.093125 8.103125 15.18625 8.20625 16.3125 8.3125 C20 9 20 9 21.9375 10.4375 C23 12 23 12 23 14 C17.6776703 12.36368504 12.69018424 10.16119959 7.625 7.875 C6.79355469 7.50246094 5.96210938 7.12992187 5.10546875 6.74609375 C3.06915745 5.83326454 1.03405461 4.91784402 -1 4 C-0.93094238 10.13849707 -0.84288681 16.27632474 -0.73754883 22.41430664 C-0.70438339 24.50049387 -0.67632557 26.58676902 -0.65356445 28.6730957 C-0.61986431 31.67957879 -0.56754032 34.68526225 -0.51171875 37.69140625 C-0.50532883 38.61772354 -0.4989389 39.54404083 -0.49235535 40.49842834 C-0.36703887 46.07212646 0.44449619 50.02881623 3 55 C0 54 0 54 -1.17089844 52.09033203 C-2.38256873 47.57404152 -2.28503989 43.21112141 -2.265625 38.5546875 C-2.26753845 37.54785919 -2.2694519 36.54103088 -2.27142334 35.50369263 C-2.27278168 33.38055165 -2.26910982 31.25740227 -2.26074219 29.13427734 C-2.25001547 25.87969413 -2.26066101 22.62566009 -2.2734375 19.37109375 C-2.27211628 17.30729045 -2.26955467 15.24348749 -2.265625 13.1796875 C-2.27169769 11.71715042 -2.27169769 11.71715042 -2.27789307 10.22506714 C-2.27158875 9.3204776 -2.26528442 8.41588806 -2.25878906 7.48388672 C-2.25719788 6.68844452 -2.25560669 5.89300232 -2.25396729 5.07345581 C-2 3 -2 3 0 0 Z " fill="#251C07" transform="translate(162,249)"/>
<path d="M0 0 C0.66 0 1.32 0 2 0 C4.56417466 5.12834931 3.71743681 12.83808635 3.94213867 18.53881836 C4.02218034 20.38334852 4.11846199 22.22724768 4.23120117 24.07006836 C4.39255193 26.73009176 4.5005197 29.38773214 4.59765625 32.05078125 C4.65768326 32.87177811 4.71771027 33.69277496 4.77955627 34.53865051 C4.8336252 36.94408399 4.79823299 38.72603837 4 41 C2.04578256 42.70095473 0.16056755 43.79994031 -2.1733551 44.9168396 C-4.36053057 45.94098733 -4.36053057 45.94098733 -5 49.11328125 C-5 50.16902344 -5 51.22476563 -5 52.3125 C-5.020625 53.38113281 -5.04125 54.44976562 -5.0625 55.55078125 C-5.041875 56.35902344 -5.02125 57.16726563 -5 58 C-7.35951179 55.64048821 -7.34409415 54.98074365 -7.4375 51.75 C-7.36944409 48.23944956 -6.87725906 46.20108146 -4.6875 43.4375 C-2 41 -2 41 1 41 C0.67 27.47 0.34 13.94 0 0 Z " fill="#E3B428" transform="translate(120,220)"/>
<path d="M0 0 C0.33 0 0.66 0 1 0 C1.02535173 6.47785609 1.04286762 12.95569938 1.05493164 19.43359375 C1.05996088 21.63737466 1.06678505 23.84115222 1.07543945 26.04492188 C1.0875666 29.21224796 1.09324241 32.37952994 1.09765625 35.546875 C1.10281754 36.53242371 1.10797882 37.51797241 1.11329651 38.53338623 C1.11340981 39.91436493 1.11340981 39.91436493 1.11352539 41.32324219 C1.115746 42.1315448 1.11796661 42.93984741 1.12025452 43.77264404 C1.001452 45.97310595 0.60974898 47.88748207 0 50 C0.66 50.33 1.32 50.66 2 51 C-0.09396201 52.86694188 -2.19870197 54.71826176 -4.3125 56.5625 C-5.20485352 57.36204102 -5.20485352 57.36204102 -6.11523438 58.17773438 C-7.67819037 59.53113202 -9.33487746 60.7744864 -11 62 C-11.99 61.67 -12.98 61.34 -14 61 C-14 61.66 -14 62.32 -14 63 C-15.32 62.67 -16.64 62.34 -18 62 C-16.87851562 61.22076172 -16.87851562 61.22076172 -15.734375 60.42578125 C-14.74953125 59.72839844 -13.7646875 59.03101563 -12.75 58.3125 C-11.28820312 57.28576172 -11.28820312 57.28576172 -9.796875 56.23828125 C-5.45759154 52.76564239 -1.44733941 48.5170437 -0.7215271 42.81060791 C-0.70820343 42.02007019 -0.69487976 41.22953247 -0.68115234 40.41503906 C-0.66128265 39.51440735 -0.64141296 38.61377563 -0.62094116 37.68585205 C-0.60361435 36.24033966 -0.60361435 36.24033966 -0.5859375 34.765625 C-0.56657135 33.77246277 -0.5472052 32.77930054 -0.5272522 31.75604248 C-0.46752678 28.58744871 -0.42109889 25.41881847 -0.375 22.25 C-0.33681377 20.10024467 -0.29776166 17.95050454 -0.2578125 15.80078125 C-0.16183109 10.53398915 -0.07676296 5.26710536 0 0 Z " fill="#1C1707" transform="translate(340,252)"/>
<path d="M0 0 C0.99 0 1.98 0 3 0 C2.99777939 0.56740906 2.99555878 1.13481812 2.99327087 1.71942139 C2.97115016 7.6241391 2.95606499 13.52884505 2.94506836 19.43359375 C2.94003912 21.63737466 2.93321495 23.84115222 2.92456055 26.04492188 C2.9124334 29.21224796 2.90675759 32.37952994 2.90234375 35.546875 C2.89718246 36.53242371 2.89202118 37.51797241 2.88670349 38.53338623 C2.88659019 39.91436493 2.88659019 39.91436493 2.88647461 41.32324219 C2.884254 42.1315448 2.88203339 42.93984741 2.87974548 43.77264404 C2.998548 45.97310595 3.39025102 47.88748207 4 50 C1.31794566 47.55116778 0.1017173 45.71806861 -0.12025452 41.96882629 C-0.11803391 41.19383286 -0.11581329 40.41883942 -0.11352539 39.62036133 C-0.11344986 38.73967484 -0.11337433 37.85898834 -0.11329651 36.95161438 C-0.10813522 36.00465195 -0.10297394 35.05768951 -0.09765625 34.08203125 C-0.0962413 33.10965012 -0.09482635 32.13726898 -0.09336853 31.13542175 C-0.08776817 28.02774996 -0.07521562 24.92015004 -0.0625 21.8125 C-0.05748505 19.70638125 -0.05292213 17.60026137 -0.04882812 15.49414062 C-0.03779862 10.32939936 -0.02053375 5.16471187 0 0 Z " fill="#CDA52C" transform="translate(161,253)"/>
<path d="M0 0 C1.64696604 0.4752588 3.29254728 0.95531891 4.9375 1.4375 C6.31228516 1.83775391 6.31228516 1.83775391 7.71484375 2.24609375 C10 3 10 3 11 4 C11.08868299 6.95705321 11.11520296 9.89065056 11.09765625 12.84765625 C11.0962413 13.7340831 11.09482635 14.62050995 11.09336853 15.53379822 C11.08775215 18.37673254 11.07519691 21.21958931 11.0625 24.0625 C11.05748711 25.98502491 11.05292384 27.90755104 11.04882812 29.83007812 C11.03777741 34.55341549 11.02050183 39.27669458 11 44 C10.34 44 9.68 44 9 44 C8.67 30.8 8.34 17.6 8 4 C6.68 4 5.36 4 4 4 C4 3.34 4 2.68 4 2 C2.68 1.67 1.36 1.34 0 1 C0 0.67 0 0.34 0 0 Z " fill="#362902" transform="translate(110,217)"/>
<path d="M0 0 C0.33 0 0.66 0 1 0 C1.66 6.27 2.32 12.54 3 19 C6.96 18.67 10.92 18.34 15 18 C14.67 18.99 14.34 19.98 14 21 C9.72918086 21.02897435 5.45838691 21.04678996 1.1875 21.0625 C-0.63491211 21.07506836 -0.63491211 21.07506836 -2.49414062 21.08789062 C-4.23920898 21.09272461 -4.23920898 21.09272461 -6.01953125 21.09765625 C-7.09307861 21.10289307 -8.16662598 21.10812988 -9.27270508 21.11352539 C-12 21 -12 21 -15 20 C-15 19.34 -15 18.68 -15 18 C-10.71 18.66 -6.42 19.32 -2 20 C-1.34 13.4 -0.68 6.8 0 0 Z " fill="#161106" transform="translate(125,314)"/>
<path d="M0 0 C-2.7288456 2.19548032 -5.22737523 3.64231134 -8.5 4.875 C-11.38632082 5.97333447 -14.22183042 7.09979517 -17.0390625 8.3671875 C-27.46209688 13.0377624 -27.46209688 13.0377624 -34 12 C-37.78024322 10.54025229 -41.39820098 8.85386714 -45 7 C-40.84228506 5.68461673 -38.1120703 6.65566932 -34 8 C-34 8.66 -34 9.32 -34 10 C-30.7 10 -27.4 10 -24 10 C-24 9.34 -24 8.68 -24 8 C-23.01 7.67 -22.02 7.34 -21 7 C-20.67 6.34 -20.34 5.68 -20 5 C-17.525 5.495 -17.525 5.495 -15 6 C-15 5.34 -15 4.68 -15 4 C-14.01 4 -13.02 4 -12 4 C-11.67 3.01 -11.34 2.02 -11 1 C-7.27569643 0.30710631 -3.78916254 -0.11144596 0 0 Z " fill="#DEAF21" transform="translate(280,267)"/>
<path d="M0 0 C2.16874252 0.50603992 3.99967627 0.99983813 6 2 C5.67 3.32 5.34 4.64 5 6 C5.66 5.34 6.32 4.68 7 4 C10 5 10 5 12 7 C11.34 7 10.68 7 10 7 C9.67 7.99 9.34 8.98 9 10 C6.69 10 4.38 10 2 10 C2 9.34 2 8.68 2 8 C0.68 8 -0.64 8 -2 8 C-2 7.34 -2 6.68 -2 6 C-2.99 5.67 -3.98 5.34 -5 5 C-3.35 4.34 -1.7 3.68 0 3 C0 2.01 0 1.02 0 0 Z " fill="#050E21" transform="translate(207,263)"/>
<path d="M0 0 C0.66 0 1.32 0 2 0 C1.85879984 2.58366245 1.71221667 5.16682885 1.5625 7.75 C1.52318359 8.47960937 1.48386719 9.20921875 1.44335938 9.9609375 C1.23852902 13.4272973 0.9147998 16.65333026 0 20 C-1.6045556 19.85851011 -3.20863767 19.71164314 -4.8125 19.5625 C-5.70582031 19.48128906 -6.59914063 19.40007812 -7.51953125 19.31640625 C-10 19 -10 19 -13 18 C-13 14.7 -13 11.4 -13 8 C-12.67 8 -12.34 8 -12 8 C-12 10.97 -12 13.94 -12 17 C-9.02934491 16.65772428 -9.02934491 16.65772428 -6 16 C-5.67 15.34 -5.34 14.68 -5 14 C-4.01 14 -3.02 14 -2 14 C-1.34 9.38 -0.68 4.76 0 0 Z " fill="#D8A820" transform="translate(123,314)"/>
<path d="M0 0 C3.3 0 6.6 0 10 0 C10 0.99 10 1.98 10 3 C11.32 3 12.64 3 14 3 C14 3.66 14 4.32 14 5 C14.804375 4.979375 15.60875 4.95875 16.4375 4.9375 C19 5 19 5 20 6 C21.68608966 6.07205511 23.37500659 6.08386068 25.0625 6.0625 C25.98160156 6.05347656 26.90070313 6.04445313 27.84765625 6.03515625 C28.55792969 6.02355469 29.26820313 6.01195312 30 6 C30.33 6.66 30.66 7.32 31 8 C33.11846285 8.68729254 33.11846285 8.68729254 35.5625 9.125 C36.80193359 9.37636719 36.80193359 9.37636719 38.06640625 9.6328125 C38.70449219 9.75398438 39.34257812 9.87515625 40 10 C40 10.33 40 10.66 40 11 C33.8615039 11.24497989 28.71563655 10.45242794 22.8125 8.8125 C21.98967529 8.59053955 21.16685059 8.3685791 20.3190918 8.13989258 C13.35396958 6.20984751 6.6623069 3.81084761 0 1 C0 0.67 0 0.34 0 0 Z " fill="#D6AA26" transform="translate(194,322)"/>
<path d="M0 0 C1.32451172 0.01353516 1.32451172 0.01353516 2.67578125 0.02734375 C3.67158203 0.04474609 3.67158203 0.04474609 4.6875 0.0625 C-5.56674337 6.89866225 -26.70278838 4.99745194 -38.3125 3.0625 C-38.3125 2.7325 -38.3125 2.4025 -38.3125 2.0625 C-37.49048096 2.03744385 -36.66846191 2.0123877 -35.8215332 1.98657227 C-32.08920626 1.87037345 -28.35711683 1.74775495 -24.625 1.625 C-23.33142578 1.58568359 -22.03785156 1.54636719 -20.70507812 1.50585938 C-19.45791016 1.46396484 -18.21074219 1.42207031 -16.92578125 1.37890625 C-15.20548706 1.32391968 -15.20548706 1.32391968 -13.45043945 1.26782227 C-8.86927095 0.96806636 -4.61816202 -0.06157549 0 0 Z " fill="#C7A12A" transform="translate(272.3125,330.9375)"/>
<path d="M0 0 C-0.99 0.33 -1.98 0.66 -3 1 C-3 4.3 -3 7.6 -3 11 C-2.01 11 -1.02 11 0 11 C0 11.66 0 12.32 0 13 C-4.30840713 11.92289822 -7.63576723 10.96052484 -11 8 C-11 5.75 -11 5.75 -10 3 C-3.37579618 -1.68789809 -3.37579618 -1.68789809 0 0 Z " fill="#E9B314" transform="translate(112,204)"/>
<path d="M0 0 C10.125 3.375 10.125 3.375 15.0625 5.6875 C16.47208984 6.34298828 16.47208984 6.34298828 17.91015625 7.01171875 C18.94462891 7.50091797 18.94462891 7.50091797 20 8 C19.34 8.66 18.68 9.32 18 10 C15.875 9.625 15.875 9.625 14 9 C14 8.34 14 7.68 14 7 C13.443125 6.87625 12.88625 6.7525 12.3125 6.625 C10 6 10 6 7.4375 4.9375 C4.96858933 3.82051046 4.96858933 3.82051046 2 4 C1.67 13.9 1.34 23.8 1 34 C0.67 34 0.34 34 0 34 C0 22.78 0 11.56 0 0 Z " fill="#261D03" transform="translate(130,226)"/>
<path d="M0 0 C3.82601307 1.45124634 5.22329124 3.35774704 7 7 C7 7.99 7 8.98 7 10 C6.01 10 5.02 10 4 10 C3.67 12.31 3.34 14.62 3 17 C2.34 17 1.68 17 1 17 C0.67 22.61 0.34 28.22 0 34 C-0.66 34 -1.32 34 -2 34 C-0.36980035 16.22123445 -0.36980035 16.22123445 1.6875 10.625 C3.12233323 6.69513459 3.12233323 6.69513459 2 3 C1.34 2.67 0.68 2.34 0 2 C0 1.34 0 0.68 0 0 Z " fill="#D7A82A" transform="translate(115,278)"/>
<path d="M0 0 C0 0.66 0 1.32 0 2 C4.455 1.505 4.455 1.505 9 1 C9 1.99 9 2.98 9 4 C3.60223048 7.0669145 3.60223048 7.0669145 0.75 6.75 C-0.51787979 6.20662295 -1.7662163 5.61689185 -3 5 C-3 4.34 -3 3.68 -3 3 C-4.65 2.67 -6.3 2.34 -8 2 C-4.77208445 -0.1519437 -3.71599191 -0.20086443 0 0 Z " fill="#040F23" transform="translate(196,260)"/>
<path d="M0 0 C4.571279 0.54855348 8.67435795 1.41744803 13 3 C13 3.66 13 4.32 13 5 C13.969375 5.309375 14.93875 5.61875 15.9375 5.9375 C19 7 19 7 20 8 C20.23728814 14.52542373 20.23728814 14.52542373 19 17 C15.54670274 18.72664863 12.84169158 19.21952523 9 19 C11.40921705 16.59078295 13.94334509 15.46187844 17 14 C17 12.35 17 10.7 17 9 C11.40037997 6.1494892 5.80862559 3.39921492 0 1 C0 0.67 0 0.34 0 0 Z " fill="#2B2209" transform="translate(381,198)"/>
<path d="M0 0 C0 0.66 0 1.32 0 2 C-0.639375 2.103125 -1.27875 2.20625 -1.9375 2.3125 C-2.618125 2.539375 -3.29875 2.76625 -4 3 C-4.33 3.99 -4.66 4.98 -5 6 C-7.21484375 6.87890625 -7.21484375 6.87890625 -9.9375 7.5625 C-13.88781528 8.50780455 -13.88781528 8.50780455 -17 11 C-21.12199405 12.45033124 -23.8172493 13.29904812 -28 12 C-26.96101563 11.55269531 -25.92203125 11.10539062 -24.8515625 10.64453125 C-17.73595413 7.5648577 -10.68422377 4.46575185 -3.8203125 0.84765625 C-2 0 -2 0 0 0 Z " fill="#D9AA21" transform="translate(284,278)"/>
<path d="M0 0 C5.4111452 0.56388688 10.77156342 1.24744257 16.14355469 2.10424805 C25.43179603 3.58557815 34.60200463 4.58705778 44 5 C44 5.33 44 5.66 44 6 C35.36576453 6.09617341 26.74932681 6.09645519 18.125 5.625 C16.82820313 5.55539062 15.53140625 5.48578125 14.1953125 5.4140625 C11 5 11 5 8 3 C5.95415921 2.33841957 5.95415921 2.33841957 3.8125 1.875 C2.554375 1.58625 1.29625 1.2975 0 1 C0 0.67 0 0.34 0 0 Z " fill="#241D03" transform="translate(213,330)"/>
<path d="M0 0 C-1 3 -1 3 -4 5 C-5.32 5 -6.64 5 -8 5 C-8 5.66 -8 6.32 -8 7 C-8.59167969 7.19335938 -9.18335938 7.38671875 -9.79296875 7.5859375 C-10.58316406 7.84632813 -11.37335938 8.10671875 -12.1875 8.375 C-13.00992187 8.64570313 -13.83234375 8.91640625 -14.6796875 9.1953125 C-17.1106082 10.00183704 -17.1106082 10.00183704 -19.8125 11.25 C-22.3685881 12.12637306 -23.46549611 11.74387955 -26 11 C-24.9378125 10.54109375 -23.875625 10.0821875 -22.78125 9.609375 C-13.86290533 5.78011272 -13.86290533 5.78011272 -5.125 1.5625 C-2 0 -2 0 0 0 Z " fill="#26200A" transform="translate(379,222)"/>
<path d="M0 0 C-7.92 3.96 -7.92 3.96 -16 8 C-16 9.65 -16 11.3 -16 13 C-16.99 12.67 -17.98 12.34 -19 12 C-19.25 5.375 -19.25 5.375 -17 2 C-17 1.34 -17 0.68 -17 0 C-16.195625 0.5259375 -16.195625 0.5259375 -15.375 1.0625 C-12.1987368 2.31628811 -10.27992769 1.81998192 -7 1 C-6.278125 0.62875 -5.55625 0.2575 -4.8125 -0.125 C-3 -1 -3 -1 0 0 Z " fill="#14160F" transform="translate(118,200)"/>
<path d="M0 0 C0.33 0.99 0.66 1.98 1 3 C1.66 3 2.32 3 3 3 C3 3.66 3 4.32 3 5 C1.88625 4.505 1.88625 4.505 0.75 4 C-9.13764584 1.36329444 -16.31079144 2.98819624 -25.28515625 7.6875 C-28 9 -28 9 -31 9 C-31 8.34 -31 7.68 -31 7 C-29.2097939 6.32942113 -27.41778511 5.6636531 -25.625 5 C-24.62726563 4.62875 -23.62953125 4.2575 -22.6015625 3.875 C-20 3 -20 3 -18 3 C-18 2.34 -18 1.68 -18 1 C-15.93769732 0.8309093 -13.8751477 0.66482867 -11.8125 0.5 C-10.08966797 0.36078125 -10.08966797 0.36078125 -8.33203125 0.21875 C-5.53927574 0.0354038 -2.79680188 -0.04213637 0 0 Z " fill="#2B200A" transform="translate(259,140)"/>
<path d="M0 0 C0 14.85 0 29.7 0 45 C-0.33 45 -0.66 45 -1 45 C-1 31.14 -1 17.28 -1 3 C-3.64 3.66 -6.28 4.32 -9 5 C-7.36885863 1.73771726 -3.62038485 0 0 0 Z " fill="#BA9226" transform="translate(340,252)"/>
<path d="M0 0 C0.33 0 0.66 0 1 0 C0.60798626 8.13766443 -0.48030931 15.80315379 -2.30078125 23.7421875 C-3.17778438 27.82833615 -3.64133869 31.83952884 -4 36 C-4.33 36 -4.66 36 -5 36 C-5.36779674 21.26769725 -5.36779674 21.26769725 -3 15 C-1.71516404 11.14549212 -1.57788252 7.43475861 -1.28125 3.3984375 C-1 1 -1 1 0 0 Z " fill="#312507" transform="translate(114,295)"/>
<path d="M0 0 C0 1.65 0 3.3 0 5 C-0.94875 4.95875 -1.8975 4.9175 -2.875 4.875 C-6.10244856 4.65026182 -6.10244856 4.65026182 -8 7 C-9.8046875 7.66796875 -9.8046875 7.66796875 -11.875 8.1875 C-12.89207031 8.45626953 -12.89207031 8.45626953 -13.9296875 8.73046875 C-16.23731982 9.03089635 -17.77743795 8.61409082 -20 8 C-17.04435292 6.66065284 -14.0850622 5.32955753 -11.125 4 C-10.28324219 3.6184375 -9.44148438 3.236875 -8.57421875 2.84375 C-7.76855469 2.4828125 -6.96289062 2.121875 -6.1328125 1.75 C-5.38918457 1.41484375 -4.64555664 1.0796875 -3.87939453 0.734375 C-2 0 -2 0 0 0 Z " fill="#231F0C" transform="translate(325,247)"/>
<path d="M0 0 C1.65 0 3.3 0 5 0 C2.2270271 2.20766726 -0.46521235 3.81040647 -3.6953125 5.26171875 C-4.57574219 5.65810547 -5.45617187 6.05449219 -6.36328125 6.46289062 C-7.27464844 6.86701172 -8.18601562 7.27113281 -9.125 7.6875 C-10.04410156 8.10322266 -10.96320313 8.51894531 -11.91015625 8.94726562 C-18.73745382 12 -18.73745382 12 -21 12 C-21 11.34 -21 10.68 -21 10 C-20.01 10 -19.02 10 -18 10 C-18 9.34 -18 8.68 -18 8 C-16.68 8 -15.36 8 -14 8 C-14 7.34 -14 6.68 -14 6 C-12.35 6 -10.7 6 -9 6 C-9 5.34 -9 4.68 -9 4 C-7.68 4 -6.36 4 -5 4 C-5 3.34 -5 2.68 -5 2 C-3.35 2 -1.7 2 0 2 C0 1.34 0 0.68 0 0 Z " fill="#DDAE26" transform="translate(357,229)"/>
<path d="M0 0 C5.29472815 1.36327201 10.02040372 3.25089659 14.9375 5.625 C15.96327148 6.11226562 15.96327148 6.11226562 17.00976562 6.609375 C18.67546525 7.40145594 20.3380664 8.2000474 22 9 C18.06329512 10.31223496 15.87511856 9.24296256 12 8 C12 7.34 12 6.68 12 6 C10.906875 6.226875 9.81375 6.45375 8.6875 6.6875 C5 7 5 7 3.0625 5.6875 C2 4 2 4 2 2 C1.34 2 0.68 2 0 2 C0 1.34 0 0.68 0 0 Z " fill="#E5B223" transform="translate(256,143)"/>
<path d="M0 0 C1.43903046 0.62146808 2.87616793 1.24732059 4.3125 1.875 C5.51326172 2.39707031 5.51326172 2.39707031 6.73828125 2.9296875 C9 4 9 4 12 6 C12.4375 8.4375 12.4375 8.4375 12 11 C9.95575462 12.97610386 8.8823175 14 6 14 C6.33 13.01 6.66 12.02 7 11 C7.66 11 8.32 11 9 11 C9 9.35 9 7.7 9 6 C7.68 6 6.36 6 5 6 C5 5.34 5 4.68 5 4 C3.68 4 2.36 4 1 4 C0.67 2.68 0.34 1.36 0 0 Z " fill="#E3B427" transform="translate(387,201)"/>
<path d="M0 0 C5.1692853 0.66326879 9.62251365 2.91924657 14.3125 5.0625 C15.56643555 5.62807617 15.56643555 5.62807617 16.84570312 6.20507812 C18.89927262 7.13211807 20.95056287 8.06386878 23 9 C23 9.33 23 9.66 23 10 C21.35 10 19.7 10 18 10 C18 9.34 18 8.68 18 8 C16.87851562 7.81824219 16.87851562 7.81824219 15.734375 7.6328125 C14.74953125 7.46523437 13.7646875 7.29765625 12.75 7.125 C11.28820312 6.88136719 11.28820312 6.88136719 9.796875 6.6328125 C5.90546705 5.75235428 3.30995404 4.20663603 0 2 C0 1.34 0 0.68 0 0 Z " fill="#DCAC25" transform="translate(345,183)"/>
<path d="M0 0 C2.99637644 1.05835315 5.77444642 2.36589473 8.5546875 3.90234375 C7.5646875 4.56234375 6.5746875 5.22234375 5.5546875 5.90234375 C5.5546875 5.24234375 5.5546875 4.58234375 5.5546875 3.90234375 C-1.3753125 3.40734375 -1.3753125 3.40734375 -8.4453125 2.90234375 C-8.7753125 1.58234375 -9.1053125 0.26234375 -9.4453125 -1.09765625 C-6.17257809 -2.73402346 -3.35951106 -1.05654189 0 0 Z " fill="#E7B01C" transform="translate(285.4453125,155.09765625)"/>
<path d="M0 0 C3.1488634 1.53187949 4.85505807 2.7922499 6.875 5.6875 C8.3590423 10.0571801 7.97422656 12.50356974 7 17 C6.34 17.66 5.68 18.32 5 19 C3.66742597 9.58997722 3.66742597 9.58997722 5 5 C4.360625 4.731875 3.72125 4.46375 3.0625 4.1875 C1 3 1 3 0 0 Z " fill="#D7A820" transform="translate(130,260)"/>
<path d="M0 0 C0.66 0.33 1.32 0.66 2 1 C0 4 0 4 -1.91015625 4.4765625 C-2.97556641 4.55003906 -2.97556641 4.55003906 -4.0625 4.625 C-7.76850197 4.55620816 -7.76850197 4.55620816 -9 6 C-11.69235776 6.23678716 -14.36498156 6.42198025 -17.0625 6.5625 C-18.20041992 6.62727539 -18.20041992 6.62727539 -19.36132812 6.69335938 C-21.24065438 6.79973633 -23.12030244 6.90039934 -25 7 C-25 6.67 -25 6.34 -25 6 C-24.42032471 5.88930176 -23.84064941 5.77860352 -23.2434082 5.66455078 C-20.59875581 5.15650262 -17.95564607 4.64082505 -15.3125 4.125 C-13.94448242 3.86396484 -13.94448242 3.86396484 -12.54882812 3.59765625 C-8.12998737 2.72995661 -4.18029105 1.6985009 0 0 Z " fill="#342907" transform="translate(293,327)"/>
<path d="M0 0 C0.99 0.33 1.98 0.66 3 1 C4.33106622 1.34227417 5.66400079 1.67751743 7 2 C7 2.66 7 3.32 7 4 C5.23244474 4.84026396 3.46082737 5.67198722 1.6875 6.5 C0.20830078 7.19609375 0.20830078 7.19609375 -1.30078125 7.90625 C-4 9 -4 9 -7 9 C-7 8.34 -7 7.68 -7 7 C-5.68 7 -4.36 7 -3 7 C-3 6.34 -3 5.68 -3 5 C-2.34 5 -1.68 5 -1 5 C-1.33 3.68 -1.66 2.36 -2 1 C-1.34 0.67 -0.68 0.34 0 0 Z " fill="#EAB517" transform="translate(307,248)"/>
<path d="M0 0 C1.65 0 3.3 0 5 0 C5 0.66 5 1.32 5 2 C5.556875 2.18175781 6.11375 2.36351562 6.6875 2.55078125 C11.84196991 4.24862185 16.93010615 6.06422235 22 8 C21.67 8.66 21.34 9.32 21 10 C13.55620912 7.76686274 6.88023305 4.59727921 0 1 C0 0.67 0 0.34 0 0 Z " fill="#DBAF24" transform="translate(162,239)"/>
<path d="M0 0 C2.29013653 3.4352048 2.17842973 4.985331 2 9 C-7.41002278 12.62870159 -7.41002278 12.62870159 -12 11 C-12 8.36 -12 5.72 -12 3 C-11.67 3 -11.34 3 -11 3 C-10.67 4.98 -10.34 6.96 -10 9 C-6.7 9 -3.4 9 0 9 C0 6.03 0 3.06 0 0 Z " fill="#C7A12F" transform="translate(139,322)"/>
<path d="M0 0 C7.21480664 2.54640234 14.08190028 5.74132193 21 9 C21 9.33 21 9.66 21 10 C17.01558024 10.27357812 14.87499855 9.6599903 11.5 7.5625 C8.31235404 5.59266949 5.71541222 4.56908603 2 4 C2 3.34 2 2.68 2 2 C1.34 2 0.68 2 0 2 C0 1.34 0 0.68 0 0 Z " fill="#252006" transform="translate(225,269)"/>
<path d="M0 0 C1.61068359 0.70576172 1.61068359 0.70576172 3.25390625 1.42578125 C4.69009791 2.05470178 6.12629618 2.68360723 7.5625 3.3125 C8.26697266 3.62123047 8.97144531 3.92996094 9.69726562 4.24804688 C14.123034 6.18559524 18.55691335 8.10249256 23 10 C23 10.33 23 10.66 23 11 C20.69 11 18.38 11 16 11 C16 10.34 16 9.68 16 9 C15.29488281 8.72414063 14.58976563 8.44828125 13.86328125 8.1640625 C10.9340016 6.97316845 8.06246414 5.69124864 5.1875 4.375 C4.21167969 3.92898438 3.23585937 3.48296875 2.23046875 3.0234375 C1.49441406 2.68570312 0.75835937 2.34796875 0 2 C0 1.34 0 0.68 0 0 Z " fill="#DFAE2B" transform="translate(165,254)"/>
<path d="M0 0 C6.14673271 1.46987086 11.42234327 4.05966587 17 7 C17 7.33 17 7.66 17 8 C15.35 8 13.7 8 12 8 C12 7.34 12 6.68 12 6 C9.69 6.33 7.38 6.66 5 7 C5 6.01 5 5.02 5 4 C2.525 3.01 2.525 3.01 0 2 C0 1.34 0 0.68 0 0 Z " fill="#E4AF20" transform="translate(368,193)"/>
<path d="M0 0 C0.33 0.66 0.66 1.32 1 2 C1.66 2 2.32 2 3 2 C3 4.64 3 7.28 3 10 C-0.65316671 8.75023244 -1.78065836 8.32901247 -4 5 C-2.68 3.35 -1.36 1.7 0 0 Z " fill="#EFB611" transform="translate(173,302)"/>
<path d="M0 0 C6.15234375 0.5859375 6.15234375 0.5859375 8 1 C8.33 1.66 8.66 2.32 9 3 C7.9375 4.5625 7.9375 4.5625 6 6 C2.3125 5.6875 2.3125 5.6875 -1 5 C-0.67 3.35 -0.34 1.7 0 0 Z " fill="#050C23" transform="translate(257,279)"/>
<path d="M0 0 C6.20477864 1.93624298 12.10825719 4.25609141 18 7 C14.91190305 8.76462683 13.76687864 9 10 9 C10 8.01 10 7.02 10 6 C8.5459375 5.566875 8.5459375 5.566875 7.0625 5.125 C4 4 4 4 3 2 C2.01 2 1.02 2 0 2 C0 1.34 0 0.68 0 0 Z " fill="#DBAC28" transform="translate(201,271)"/>
<path d="M0 0 C-3.0296652 2.44814179 -6.07549599 4.09452853 -9.625 5.6875 C-10.58664062 6.12449219 -11.54828125 6.56148437 -12.5390625 7.01171875 C-15 8 -15 8 -17 8 C-17 7.01 -17 6.02 -17 5 C-13.535 4.505 -13.535 4.505 -10 4 C-10 3.34 -10 2.68 -10 2 C-6.49223216 0.39644899 -3.85645121 -0.22036864 0 0 Z " fill="#E2B125" transform="translate(379,221)"/>
<path d="M0 0 C0.66 0.66 1.32 1.32 2 2 C1.67 2.66 1.34 3.32 1 4 C2.32 4.33 3.64 4.66 5 5 C5 5.99 5 6.98 5 8 C0.52761347 6.58192622 -3.71146306 4.88695626 -8 3 C-7.13375 2.814375 -7.13375 2.814375 -6.25 2.625 C-3.97664233 1.99351176 -2.0746471 1.11141809 0 0 Z " fill="#1E1A0D" transform="translate(291,152)"/>
<path d="M0 0 C8.57142857 0.85714286 8.57142857 0.85714286 12 3 C12 3.66 12 4.32 12 5 C13.65 5 15.3 5 17 5 C17.66 6.32 18.32 7.64 19 9 C14.53202662 7.60121198 10.36177921 5.86369228 6.125 3.875 C4.97257813 3.33617187 3.82015625 2.79734375 2.6328125 2.2421875 C1.76398438 1.83226562 0.89515625 1.42234375 0 1 C0 0.67 0 0.34 0 0 Z " fill="#2E2309" transform="translate(223,280)"/>
<path d="M0 0 C2.64 0 5.28 0 8 0 C8.33 0.66 8.66 1.32 9 2 C11.31104818 3.05047644 13.64583651 4.05007438 16 5 C16.66 5.33 17.32 5.66 18 6 C18 6.66 18 7.32 18 8 C13.78224268 6.64474464 9.70578678 5.09799886 5.625 3.375 C4.56539062 2.92898438 3.50578125 2.48296875 2.4140625 2.0234375 C1.61742187 1.68570312 0.82078125 1.34796875 0 1 C0 0.67 0 0.34 0 0 Z " fill="#D4AB20" transform="translate(206,260)"/>
<path d="M0 0 C0 1.32 0 2.64 0 4 C0.66 4 1.32 4 2 4 C2 4.66 2 5.32 2 6 C-7.59453303 3.10933941 -7.59453303 3.10933941 -11 0 C-9.54263913 -0.19491452 -8.08405407 -0.38069358 -6.625 -0.5625 C-5.81289063 -0.66691406 -5.00078125 -0.77132812 -4.1640625 -0.87890625 C-2 -1 -2 -1 0 0 Z " fill="#241E09" transform="translate(368,187)"/>
<path d="M0 0 C4.38537104 0.52029826 8.67345286 1.10924029 13 2 C13.66 2 14.32 2 15 2 C15 3.65 15 5.3 15 7 C9.76727367 5.36041242 4.84803364 3.61047965 0 1 C0 0.67 0 0.34 0 0 Z " fill="#29200B" transform="translate(319,170)"/>
<path d="M0 0 C0.66 0.33 1.32 0.66 2 1 C0.6875 2.5 0.6875 2.5 -1 4 C-1.99 4 -2.98 4 -4 4 C-4.66 5.65 -5.32 7.3 -6 9 C-6.99 8.34 -7.98 7.68 -9 7 C-12.63939932 7.31730524 -12.63939932 7.31730524 -16 8 C-13.00833114 6.0055541 -10.20189821 4.78028422 -6.875 3.4375 C-3.16919291 2.15616662 -3.16919291 2.15616662 0 0 Z " fill="#2B220D" transform="translate(312,319)"/>
<path d="M0 0 C1.65 0 3.3 0 5 0 C3.43453542 3.13092916 0.75160269 3.69628751 -2.375 5.125 C-3.53773438 5.66382813 -4.70046875 6.20265625 -5.8984375 6.7578125 C-9 8 -9 8 -12 8 C-12 7.34 -12 6.68 -12 6 C-10.56570999 5.32645501 -9.12742943 4.66140299 -7.6875 4 C-6.48673828 3.443125 -6.48673828 3.443125 -5.26171875 2.875 C-3 2 -3 2 0 2 C0 1.34 0 0.68 0 0 Z " fill="#DDAE24" transform="translate(311,317)"/>
<path d="M0 0 C0.66 0.33 1.32 0.66 2 1 C-1.465 3.97 -1.465 3.97 -5 7 C-5 6.34 -5 5.68 -5 5 C-7.05270463 6.84188612 -7.05270463 6.84188612 -8 9 C-9.32 8.01 -10.64 7.02 -12 6 C-10.04669132 4.96958487 -8.08718472 3.9509107 -6.125 2.9375 C-5.03445312 2.36902344 -3.94390625 1.80054688 -2.8203125 1.21484375 C-1.42425781 0.61349609 -1.42425781 0.61349609 0 0 Z " fill="#4C515F" transform="translate(65,6)"/>
<path d="M0 0 C0.53625 0.165 1.0725 0.33 1.625 0.5 C4.45886009 1.09660212 7.1119806 1.0656368 10 1 C7.74402173 3.25597827 5.95396133 3.96574192 3 5.125 C2.113125 5.47820312 1.22625 5.83140625 0.3125 6.1953125 C-2 7 -2 7 -4 7 C-4 6.01 -4 5.02 -4 4 C-2.35 4 -0.7 4 1 4 C0.67 2.68 0.34 1.36 0 0 Z " fill="#E3B120" transform="translate(287,258)"/>
<path d="M0 0 C7.44379088 2.23313726 14.11976695 5.40272079 21 9 C17.29218328 10.23593891 16.32489747 9.5678132 12.8125 8.0625 C11.91144531 7.68222656 11.01039063 7.30195313 10.08203125 6.91015625 C9.39496094 6.60980469 8.70789063 6.30945313 8 6 C8 5.34 8 4.68 8 4 C5.69 3.67 3.38 3.34 1 3 C0.67 2.01 0.34 1.02 0 0 Z " fill="#DDAF2A" transform="translate(315,169)"/>
<path d="M0 0 C1.23556641 0.01740234 1.23556641 0.01740234 2.49609375 0.03515625 C3.32238281 0.04417969 4.14867187 0.05320312 5 0.0625 C5.63808594 0.07410156 6.27617187 0.08570313 6.93359375 0.09765625 C6.93359375 0.42765625 6.93359375 0.75765625 6.93359375 1.09765625 C1.01578038 3.15955556 -4.27058839 3.33933463 -10.50390625 3.22265625 C-11.42623047 3.21363281 -12.34855469 3.20460938 -13.29882812 3.1953125 C-15.55496434 3.17193285 -17.81054309 3.13916541 -20.06640625 3.09765625 C-20.06640625 2.76765625 -20.06640625 2.43765625 -20.06640625 2.09765625 C-18.24302734 2.00677734 -18.24302734 2.00677734 -16.3828125 1.9140625 C-14.79816397 1.82967293 -13.21352923 1.74502415 -11.62890625 1.66015625 C-10.82646484 1.62083984 -10.02402344 1.58152344 -9.19726562 1.54101562 C-5.8207163 1.35580406 -3.02380556 0.14290196 0 0 Z " fill="#14120F" transform="translate(260.06640625,333.90234375)"/>
<path d="M0 0 C0.66 0.33 1.32 0.66 2 1 C0.02 2.32 -1.96 3.64 -4 5 C-3.67 5.66 -3.34 6.32 -3 7 C-6.63 7 -10.26 7 -14 7 C-11.19665157 5.13110105 -8.48722906 3.72975092 -5.4375 2.3125 C-4.46683594 1.85488281 -3.49617188 1.39726562 -2.49609375 0.92578125 C-1.67238281 0.62027344 -0.84867187 0.31476563 0 0 Z " fill="#251E09" transform="translate(345,237)"/>
<path d="M0 0 C3.63 0 7.26 0 11 0 C11 0.33 11 0.66 11 1 C9.35 1.33 7.7 1.66 6 2 C5.67 2.99 5.34 3.98 5 5 C3.02 5.33 1.04 5.66 -1 6 C-0.67 5.01 -0.34 4.02 0 3 C0 2.01 0 1.02 0 0 Z " fill="#1E2537" transform="translate(401,0)"/>
<path d="M0 0 C0 0.66 0 1.32 0 2 C-1.269553 2.64834654 -2.54069706 3.29357815 -3.8125 3.9375 C-4.52019531 4.29714844 -5.22789062 4.65679687 -5.95703125 5.02734375 C-8 6 -8 6 -11 7 C-11 7.66 -11 8.32 -11 9 C-13.97 8.505 -13.97 8.505 -17 8 C-13.89808976 5.28582854 -10.74357043 4.05107863 -6.90234375 2.74609375 C-4.33688969 1.73993004 -2.82754533 0 0 0 Z " fill="#2B2309" transform="translate(285,265)"/>
<path d="M0 0 C1.98 0 3.96 0 6 0 C2.9377256 2.48627517 -0.1457054 4.09989404 -3.75 5.6875 C-4.73484375 6.12449219 -5.7196875 6.56148437 -6.734375 7.01171875 C-7.48203125 7.33785156 -8.2296875 7.66398438 -9 8 C-9.33 7.34 -9.66 6.68 -10 6 C-9.195625 5.71125 -8.39125 5.4225 -7.5625 5.125 C-4.8673532 4.26737432 -4.8673532 4.26737432 -4 2 C-2.68 2 -1.36 2 0 2 C0 1.34 0 0.68 0 0 Z " fill="#DDAE26" transform="translate(325,243)"/>
<path d="M0 0 C0.33 0.66 0.66 1.32 1 2 C0.67 2.66 0.34 3.32 0 4 C0.66 4.33 1.32 4.66 2 5 C1.01 6.98 0.02 8.96 -1 11 C-2.32 11 -3.64 11 -5 11 C-3.77472971 6.94718288 -2.30119506 3.55639236 0 0 Z " fill="#484C59" transform="translate(14,49)"/>
<path d="M0 0 C0.33 0 0.66 0 1 0 C1.33 4.29 1.66 8.58 2 13 C1.34 13 0.68 13 0 13 C-0.33 14.98 -0.66 16.96 -1 19 C-2.30150781 15.09547658 -1.62254053 11.79539691 -1.0625 7.8125 C-0.96259766 7.06291016 -0.86269531 6.31332031 -0.75976562 5.54101562 C-0.51260359 3.69318518 -0.25710389 1.8464734 0 0 Z " fill="#4D3704" transform="translate(125,314)"/>
<path d="M0 0 C2.31 0 4.62 0 7 0 C4.59757773 3.17462943 2.38286724 5.85751741 -1 8 C-1.66 8 -2.32 8 -3 8 C-3.33 7.01 -3.66 6.02 -4 5 C-2.68 5 -1.36 5 0 5 C0 3.35 0 1.7 0 0 Z " fill="#E6B31E" transform="translate(328,304)"/>
<path d="M0 0 C2 0 4 0 6 0 C5.49287967 3.71888239 4.88391785 6.73454239 3 10 C2.87625 9.46375 2.7525 8.9275 2.625 8.375 C1.87793984 5.5361714 0.94696636 2.77776798 0 0 Z " fill="#373B48" transform="translate(489,429)"/>
<path d="M0 0 C3.61055091 0.76242216 6.85834625 2.12473374 10.25 3.5625 C11.32765625 4.01753906 12.4053125 4.47257812 13.515625 4.94140625 C14.33546875 5.29074219 15.1553125 5.64007813 16 6 C12.38442187 7.06517032 11.31700821 6.75606317 8 5 C6.453125 4.814375 6.453125 4.814375 4.875 4.625 C2 4 2 4 0.625 1.9375 C0.41875 1.298125 0.2125 0.65875 0 0 Z " fill="#241B06" transform="translate(185,319)"/>
<path d="M0 0 C0 0.99 0 1.98 0 3 C-0.66 3 -1.32 3 -2 3 C-2.33 3.99 -2.66 4.98 -3 6 C-5.31 5.67 -7.62 5.34 -10 5 C-4.03225806 0 -4.03225806 0 0 0 Z " fill="#1F1D0E" transform="translate(305,256)"/>
<path d="M0 0 C1.98 0 3.96 0 6 0 C6 0.66 6 1.32 6 2 C6.556875 2.103125 7.11375 2.20625 7.6875 2.3125 C10.44176578 3.13133577 12.58727657 4.45853781 15 6 C14.01 6.495 14.01 6.495 13 7 C10.75689987 6.10333658 8.55245679 5.10853317 6.375 4.0625 C5.18648438 3.49660156 3.99796875 2.93070313 2.7734375 2.34765625 C1.85820312 1.90292969 0.94296875 1.45820313 0 1 C0 0.67 0 0.34 0 0 Z " fill="#322709" transform="translate(263,145)"/>
<path d="M0 0 C1.32 0.33 2.64 0.66 4 1 C4 1.99 4 2.98 4 4 C2.35 4.33 0.7 4.66 -1 5 C-1 5.66 -1 6.32 -1 7 C-2.32 6.67 -3.64 6.34 -5 6 C-3.35 4.02 -1.7 2.04 0 0 Z " fill="#060D23" transform="translate(294,266)"/>
<path d="M0 0 C1.60517097 0.08733576 3.20921662 0.19552224 4.8125 0.3125 C6.15248047 0.39951172 6.15248047 0.39951172 7.51953125 0.48828125 C10.32671925 1.06740192 11.30697846 1.7220142 13 4 C13 4.66 13 5.32 13 6 C8.52761347 4.58192622 4.28853694 2.88695626 0 1 C0 0.67 0 0.34 0 0 Z " fill="#DDB122" transform="translate(187,251)"/>
<path d="M0 0 C-0.99 0.33 -1.98 0.66 -3 1 C-3 1.66 -3 2.32 -3 3 C-3.969375 3.268125 -4.93875 3.53625 -5.9375 3.8125 C-6.948125 4.204375 -7.95875 4.59625 -9 5 C-9.33 5.99 -9.66 6.98 -10 8 C-10.33 6.68 -10.66 5.36 -11 4 C-3.77464789 -1.88732394 -3.77464789 -1.88732394 0 0 Z " fill="#D0A628" transform="translate(112,204)"/>
<path d="M0 0 C-5.445 2.475 -5.445 2.475 -11 5 C-11.66 4.34 -12.32 3.68 -13 3 C-12.01 3 -11.02 3 -10 3 C-10 2.01 -10 1.02 -10 0 C-6.05523353 -0.80688405 -4.00001715 -1.00000429 0 0 Z " fill="#1F1909" transform="translate(228,150)"/>
<path d="M0 0 C0.33 0.66 0.66 1.32 1 2 C0.0625 4.625 0.0625 4.625 -1 7 C-1.66 7 -2.32 7 -3 7 C-3.33 7.99 -3.66 8.98 -4 10 C-6.0625 10.6875 -6.0625 10.6875 -8 11 C-7 9 -6 7 -5 5 C-4.34 5 -3.68 5 -3 5 C-3 4.34 -3 3.68 -3 3 C-2.34 3 -1.68 3 -1 3 C-0.67 2.01 -0.34 1.02 0 0 Z " fill="#555967" transform="translate(27,32)"/>
<path d="M0 0 C3.3 0 6.6 0 10 0 C10 0.66 10 1.32 10 2 C10.66 2 11.32 2 12 2 C12 2.66 12 3.32 12 4 C13.32 4.33 14.64 4.66 16 5 C10.34979382 4.39891424 5.33835539 2.92471317 0 1 C0 0.67 0 0.34 0 0 Z " fill="#696B74" transform="translate(62,492)"/>
<path d="M0 0 C0.99 0.185625 1.98 0.37125 3 0.5625 C7.17087678 1.17661683 10.85034269 0.65520905 15 0 C14.67 0.99 14.34 1.98 14 3 C9.71 3 5.42 3 1 3 C0.67 2.01 0.34 1.02 0 0 Z " fill="#1D1A08" transform="translate(125,332)"/>
<path d="M0 0 C-3.09361358 2.06240906 -4.46698546 2.38991902 -8.0625 2.75 C-8.94035156 2.84796875 -9.81820313 2.9459375 -10.72265625 3.046875 C-13 3 -13 3 -15 1 C-10.03926578 -0.32286246 -5.08888488 -0.08893197 0 0 Z " fill="#D9AB26" transform="translate(277,331)"/>
<path d="M0 0 C1.32 0.33 2.64 0.66 4 1 C-1.445 3.475 -1.445 3.475 -7 6 C-7.33 5.34 -7.66 4.68 -8 4 C-7.67 3.01 -7.34 2.02 -7 1 C-5.5459375 1.0309375 -5.5459375 1.0309375 -4.0625 1.0625 C-1.12534105 1.35618499 -1.12534105 1.35618499 0 0 Z " fill="#231B08" transform="translate(289,273)"/>
<path d="M0 0 C2.97 0 5.94 0 9 0 C9.33 0.99 9.66 1.98 10 3 C10.99 3.66 11.98 4.32 13 5 C9.12049035 5 7.63334507 4.59216239 4.25 3 C3.45078125 2.62875 2.6515625 2.2575 1.828125 1.875 C1.22484375 1.58625 0.6215625 1.2975 0 1 C0 0.67 0 0.34 0 0 Z " fill="#2C230B" transform="translate(210,274)"/>
<path d="M0 0 C-0.1875 2.375 -0.1875 2.375 -1 5 C-3.5625 6.3125 -3.5625 6.3125 -6 7 C-6.33 6.01 -6.66 5.02 -7 4 C-2.25 0 -2.25 0 0 0 Z " fill="#EEB213" transform="translate(116,201)"/>
<path d="M0 0 C-1.93232821 0.86580287 -3.87107194 1.71729941 -5.8125 2.5625 C-6.89144531 3.03816406 -7.97039062 3.51382813 -9.08203125 4.00390625 C-12 5 -12 5 -15 4 C-5.69800321 -1.54542116 -5.69800321 -1.54542116 0 0 Z " fill="#281F05" transform="translate(216,156)"/>
<path d="M0 0 C0.66 0 1.32 0 2 0 C2 0.66 2 1.32 2 2 C2.66 2 3.32 2 4 2 C4 2.66 4 3.32 4 4 C4.99 4.33 5.98 4.66 7 5 C6.01 5.66 5.02 6.32 4 7 C2.35 6.01 0.7 5.02 -1 4 C-0.67 2.68 -0.34 1.36 0 0 Z " fill="#3B4050" transform="translate(461,22)"/>
<path d="M0 0 C3.3 0 6.6 0 10 0 C10 0.99 10 1.98 10 3 C11.32 3.33 12.64 3.66 14 4 C8.34605369 4.34615998 4.96993194 3.43425238 0 1 C0 0.67 0 0.34 0 0 Z " fill="#DFB020" transform="translate(194,322)"/>
<path d="M0 0 C3.82601307 1.45124634 5.22329124 3.35774704 7 7 C7 7.99 7 8.98 7 10 C6.01 10 5.02 10 4 10 C3.566875 8.2984375 3.566875 8.2984375 3.125 6.5625 C2.75375 5.386875 2.3825 4.21125 2 3 C1.34 2.67 0.68 2.34 0 2 C0 1.34 0 0.68 0 0 Z " fill="#E9B51B" transform="translate(115,278)"/>
<path d="M0 0 C2.64 0.33 5.28 0.66 8 1 C8 1.66 8 2.32 8 3 C9.32 3 10.64 3 12 3 C12.33 3.99 12.66 4.98 13 6 C3.40546697 3.10933941 3.40546697 3.10933941 0 0 Z " fill="#292109" transform="translate(197,268)"/>
<path d="M0 0 C1.4800841 0.11362262 2.95910074 0.24122908 4.4375 0.375 C5.26121094 0.44460937 6.08492188 0.51421875 6.93359375 0.5859375 C7.95646484 0.79089844 7.95646484 0.79089844 9 1 C9.33 1.66 9.66 2.32 10 3 C10.99 3.33 11.98 3.66 13 4 C12.67 4.66 12.34 5.32 12 6 C8.04 4.35 4.08 2.7 0 1 C0 0.67 0 0.34 0 0 Z " fill="#2D2007" transform="translate(301,162)"/>
<path d="M0 0 C-1.5625 2 -1.5625 2 -4 4 C-7.75 4.25 -7.75 4.25 -11 4 C-9.71264403 1.42528807 -8.71510189 1.29583343 -6.0625 0.3125 C-5.35222656 0.04050781 -4.64195312 -0.23148437 -3.91015625 -0.51171875 C-2 -1 -2 -1 0 0 Z " fill="#D7A61E" transform="translate(322,262)"/>
<path d="M0 0 C2.31 0 4.62 0 7 0 C7 0.66 7 1.32 7 2 C7.99 2.33 8.98 2.66 10 3 C10 3.66 10 4.32 10 5 C6.08788267 3.84414715 3.1254959 2.64465038 0 0 Z " fill="#2F2708" transform="translate(186,263)"/>
<path d="M0 0 C0 1.65 0 3.3 0 5 C-2.97 4.67 -5.94 4.34 -9 4 C-3 0 -3 0 0 0 Z " fill="#17180E" transform="translate(325,247)"/>
<path d="M0 0 C4.51720311 -0.36625971 4.51720311 -0.36625971 6.8125 1.375 C8 3 8 3 8 5 C2.25 3.125 2.25 3.125 0 2 C0 1.34 0 0.68 0 0 Z " fill="#262106" transform="translate(177,258)"/>
<path d="M0 0 C2.64 0.33 5.28 0.66 8 1 C7 3 7 3 3.9375 4.125 C2.4834375 4.558125 2.4834375 4.558125 1 5 C0.67 3.35 0.34 1.7 0 0 Z " fill="#1B1A0F" transform="translate(324,254)"/>
<path d="M0 0 C-2.87164566 2.70272533 -4.30991841 3.94791837 -8.3125 4.25 C-9.199375 4.1675 -10.08625 4.085 -11 4 C-3.77464789 -1.88732394 -3.77464789 -1.88732394 0 0 Z " fill="#D5A722" transform="translate(136,193)"/>
<path d="M0 0 C4.48525648 0.656379 8.66914029 1.70074209 13 3 C12.01 3.66 11.02 4.32 10 5 C10 4.34 10 3.68 10 3 C8.8553125 3.2784375 8.8553125 3.2784375 7.6875 3.5625 C5 4 5 4 2 3 C2 2.34 2 1.68 2 1 C1.34 0.67 0.68 0.34 0 0 Z " fill="#72767F" transform="translate(416,1)"/>
<path d="M0 0 C0.66 0 1.32 0 2 0 C2 0.66 2 1.32 2 2 C3.65 2.33 5.3 2.66 7 3 C7 4.65 7 6.3 7 8 C6.34 8 5.68 8 5 8 C5 7.34 5 6.68 5 6 C4.34 6 3.68 6 3 6 C2.01 4.02 1.02 2.04 0 0 Z " fill="#565A68" transform="translate(19,457)"/>
<path d="M0 0 C1.98 0 3.96 0 6 0 C6 0.66 6 1.32 6 2 C7.32 2.66 8.64 3.32 10 4 C9.01 4.495 9.01 4.495 8 5 C6.0546875 4.22265625 6.0546875 4.22265625 3.875 3.0625 C3.15054688 2.68222656 2.42609375 2.30195313 1.6796875 1.91015625 C1.12539062 1.60980469 0.57109375 1.30945313 0 1 C0 0.67 0 0.34 0 0 Z " fill="#D2A625" transform="translate(184,317)"/>
<path d="M0 0 C1.485 0.99 1.485 0.99 3 2 C2.71640113 3.4391134 2.42278601 4.87625518 2.125 6.3125 C1.88136719 7.51326172 1.88136719 7.51326172 1.6328125 8.73828125 C1 11 1 11 -1 14 C-0.67 9.38 -0.34 4.76 0 0 Z " fill="#3C2803" transform="translate(116,280)"/>
<path d="M0 0 C-0.99 0.66 -1.98 1.32 -3 2 C-3.25030977 4.58380177 -3.25030977 4.58380177 -3 7 C-3.99 6.67 -4.98 6.34 -6 6 C-6 4.02 -6 2.04 -6 0 C-3.50907189 -1.24546405 -2.58919267 -0.7767578 0 0 Z " fill="#1E180A" transform="translate(105,206)"/>
<path d="M0 0 C3.34373475 0.55728913 6.03312999 1.35173889 9 3 C9 3.33 9 3.66 9 4 C6.03 3.67 3.06 3.34 0 3 C0 2.01 0 1.02 0 0 Z " fill="#EAB621" transform="translate(336,179)"/>
<path d="M0 0 C2.31 0.33 4.62 0.66 7 1 C4.06171403 3.50298434 1.82097239 4.46930939 -2 5 C-2 4.34 -2 3.68 -2 3 C-1.34 2.67 -0.68 2.34 0 2 C0 1.34 0 0.68 0 0 Z " fill="#181809" transform="translate(190,162)"/>
<path d="M0 0 C0.99 0.33 1.98 0.66 3 1 C3 1.99 3 2.98 3 4 C1.35 4.66 -0.3 5.32 -2 6 C-2 5.34 -2 4.68 -2 4 C-2.66 3.67 -3.32 3.34 -4 3 C-2.1875 1.4375 -2.1875 1.4375 0 0 Z " fill="#121928" transform="translate(493,425)"/>
<path d="M0 0 C3.68266103 0.59950296 7.34543185 1.24758891 11 2 C11 2.99 11 3.98 11 5 C9.53932801 4.54917531 8.08151968 4.08906463 6.625 3.625 C5.81289062 3.36976563 5.00078125 3.11453125 4.1640625 2.8515625 C2 2 2 2 0 0 Z " fill="#D7AA24" transform="translate(235,273)"/>
<path d="M0 0 C0 0.66 0 1.32 0 2 C-3.6441774 4.4294516 -5.71241272 4.16179575 -10 4 C-4 0 -4 0 0 0 Z " fill="#2C2308" transform="translate(295,261)"/>
<path d="M0 0 C2 3 2 3 1.609375 5.2265625 C1.32578125 6.01804687 1.0421875 6.80953125 0.75 7.625 C0.47671875 8.42164062 0.2034375 9.21828125 -0.078125 10.0390625 C-1 12 -1 12 -3 13 C-2.68817931 11.58318366 -2.37551263 10.16655349 -2.0625 8.75 C-1.88847656 7.96109375 -1.71445312 7.1721875 -1.53515625 6.359375 C-1.052444 4.23121297 -0.53836822 2.11467158 0 0 Z " fill="#666A72" transform="translate(5,67)"/>
<path d="M0 0 C0.99 0.33 1.98 0.66 3 1 C2.67 1.99 2.34 2.98 2 4 C2.38932856 6.14255793 2.38932856 6.14255793 3 8 C0.47411298 5.63707344 -0.88820837 4.33537489 -2 1 C-1.34 0.67 -0.68 0.34 0 0 Z " fill="#595E6C" transform="translate(16,449)"/>
<path d="M0 0 C1.65 0 3.3 0 5 0 C4.01 1.485 4.01 1.485 3 3 C2.60986284 4.9896995 2.26797351 6.99019869 2 9 C1.67 9 1.34 9 1 9 C0.67 6.03 0.34 3.06 0 0 Z " fill="#E6B21A" transform="translate(130,279)"/>
<path d="M0 0 C2.31 0.33 4.62 0.66 7 1 C4.3144406 3.6855594 1.62378672 4.06049974 -2 5 C-1.34 3.35 -0.68 1.7 0 0 Z " fill="#201B08" transform="translate(304,264)"/>
<path d="M0 0 C4.455 1.98 4.455 1.98 9 4 C5.71023192 5.09658936 4.28696233 4.79953138 1 4 C0.67 2.68 0.34 1.36 0 0 Z " fill="#D3A826" transform="translate(387,201)"/>
<path d="M0 0 C0.66 0.33 1.32 0.66 2 1 C2 2.32 2 3.64 2 5 C2.66 5 3.32 5 4 5 C4 5.66 4 6.32 4 7 C2.125 6.8125 2.125 6.8125 0 6 C-1.25 3.4375 -1.25 3.4375 -2 1 C-1.34 0.67 -0.68 0.34 0 0 Z " fill="#151712" transform="translate(366,186)"/>
<path d="M0 0 C4.75 0.875 4.75 0.875 7 2 C7 2.66 7 3.32 7 4 C4.03 3.505 4.03 3.505 1 3 C0.67 2.01 0.34 1.02 0 0 Z " fill="#E9B621" transform="translate(345,183)"/>
<path d="M0 0 C-3.3 1.32 -6.6 2.64 -10 4 C-10 3.34 -10 2.68 -10 2 C-9.34 2 -8.68 2 -8 2 C-8 1.34 -8 0.68 -8 0 C-4.71303767 -0.79953138 -3.28976808 -1.09658936 0 0 Z " fill="#241B05" transform="translate(155,183)"/>
<path d="M0 0 C2.31 0.66 4.62 1.32 7 2 C7 3.32 7 4.64 7 6 C6.34 6 5.68 6 5 6 C3.2856382 4.04072937 1.61594832 2.04119788 0 0 Z " fill="#60646F" transform="translate(431,5)"/>
<path d="M0 0 C1.98 1.65 3.96 3.3 6 5 C3 6 3 6 0 5 C0 3.35 0 1.7 0 0 Z " fill="#2C230C" transform="translate(165,304)"/>
<path d="M0 0 C2.31 0.33 4.62 0.66 7 1 C3.91190305 2.76462683 2.76687864 3 -1 3 C-0.67 2.01 -0.34 1.02 0 0 Z " fill="#E7B314" transform="translate(212,277)"/>
<path d="M0 0 C2.64 0 5.28 0 8 0 C8 0.99 8 1.98 8 3 C4.62537285 2.45276317 2.91765 1.9451 0 0 Z " fill="#DDAE20" transform="translate(112,217)"/>
<path d="M0 0 C0.66 0.33 1.32 0.66 2 1 C1.01 2.485 1.01 2.485 0 4 C-1.32 4 -2.64 4 -4 4 C-4.33 4.66 -4.66 5.32 -5 6 C-5.33 5.01 -5.66 4.02 -6 3 C-4.03533587 1.93224776 -2.03144641 0.93446535 0 0 Z " fill="#CFA420" transform="translate(201,161)"/>
</svg>
